<svg width="1440" height="501" viewBox="0 0 1440 501" fill="none" xmlns="http://www.w3.org/2000/svg">
<rect width="1440" height="820" transform="translate(0 -53)" fill="#F0F0F7"/>
<rect y="-53" width="1440" height="820" fill="#8257E5"/>
<path d="M986.753 435.21C987.966 428.846 991.732 423.011 997.02 419.286" stroke="#04D361" stroke-width="0.779" stroke-miterlimit="10"/>
<path d="M986.589 437C986.817 431.686 988.868 418.893 993.719 410.885" stroke="#04D361" stroke-width="0.779" stroke-miterlimit="10"/>
<path d="M986.662 436.343C987.501 426.865 987.428 416.391 985.95 406.986" stroke="#04D361" stroke-width="0.779" stroke-miterlimit="10"/>
<path d="M997.793 416.811L997.793 416.811C997.746 416.894 997.699 416.978 997.652 417.061C996.993 418.226 996.334 419.389 995.522 420.489C995.735 420.418 995.96 420.332 996.194 420.238C996.312 420.191 996.434 420.141 996.558 420.091C996.815 419.986 997.08 419.878 997.331 419.784C997.704 419.645 998.091 419.521 998.452 419.467L998.452 419.467C1000.13 419.221 1001.83 419.289 1003.48 419.502L1003.48 419.502C1004.76 419.67 1006.04 419.923 1007.29 420.173C1007.7 420.254 1008.11 420.335 1008.51 420.412C1010.17 420.729 1011.8 420.992 1013.45 421.014L1013.45 421.014C1014.38 421.027 1015.38 420.906 1016.21 420.583C1017.05 420.261 1017.69 419.756 1018.02 419.019L1018.02 419.018C1018.56 417.812 1018 416.222 1016.88 415.287L1016.88 415.286C1015.77 414.353 1014.24 413.982 1012.67 413.83L1012.67 413.83C1012.09 413.774 1011.52 413.745 1010.93 413.716C1010.72 413.705 1010.5 413.694 1010.28 413.681C1009.47 413.635 1008.64 413.57 1007.81 413.413L1007.81 413.412C1007.32 413.317 1006.84 413.191 1006.37 413.065C1006.29 413.045 1006.22 413.025 1006.14 413.005C1005.75 412.898 1005.36 412.794 1004.98 412.706C1004.06 412.497 1003.21 412.391 1002.37 412.554L997.793 416.811ZM997.793 416.811L997.794 416.809M997.793 416.811L997.794 416.809M997.794 416.809C998.915 414.811 1000.36 412.945 1002.37 412.554L997.794 416.809Z" fill="#04D361" stroke="#04D361"/>
<path d="M993.107 412.007C993.732 411.484 994.324 410.836 994.937 410.143C995.017 410.053 995.096 409.963 995.176 409.872C995.913 409.036 996.687 408.157 997.547 407.472C999.904 405.588 1002.76 404.133 1005.84 403.895L993.107 412.007ZM993.107 412.007C993.138 411.827 993.185 411.618 993.25 411.381C993.469 410.575 993.856 409.547 994.3 408.485C994.973 406.877 995.75 405.246 996.224 404.253C996.376 403.934 996.496 403.68 996.572 403.515M993.107 412.007L996.572 403.515M996.572 403.515C996.572 403.515 996.572 403.515 996.572 403.516L996.118 403.306L996.572 403.514C996.572 403.515 996.572 403.515 996.572 403.515ZM1021 398.23L1021 398.229C1020.35 397.134 1019.03 396.513 1017.65 396.304L1021 398.23ZM1021 398.23C1021.5 399.07 1021.53 400.097 1021.19 401.086M1021 398.23L1021.19 401.086M1021.19 401.086C1020.84 402.077 1020.14 402.983 1019.26 403.541M1021.19 401.086L1019.26 403.541M1019.26 403.541C1017.45 404.688 1015.12 404.77 1012.84 404.517M1019.26 403.541L1012.84 404.517M1012.84 404.517C1012.18 404.444 1011.54 404.35 1010.9 404.254M1012.84 404.517L1010.9 404.254M1010.9 404.254C1010.41 404.182 1009.91 404.109 1009.4 404.043M1010.9 404.254L1009.4 404.043M1009.4 404.043C1008.23 403.895 1007.04 403.799 1005.84 403.894L1009.4 404.043ZM993.086 412.594C993.086 412.594 993.085 412.593 993.085 412.592L993.086 412.594Z" fill="#04D361" stroke="#04D361"/>
<path d="M988.229 397.871L988.229 397.872C988.522 399.665 988.223 401.507 987.662 403.283C987.622 403.41 987.573 403.57 987.518 403.753C987.349 404.313 987.114 405.093 986.824 405.831C986.632 406.319 986.427 406.759 986.218 407.081C986.113 407.242 986.018 407.358 985.934 407.434C985.85 407.511 985.802 407.525 985.792 407.527L985.791 407.527C985.688 407.547 985.477 407.517 985.14 407.349C984.821 407.19 984.464 406.945 984.101 406.659C983.38 406.089 982.702 405.404 982.373 405.061C981.368 404.002 980.568 402.755 980.074 401.392L980.073 401.39C979.495 399.816 979.295 398.134 979.095 396.381C979.091 396.343 979.087 396.304 979.082 396.266C978.889 394.569 978.689 392.807 978.106 391.134L978.106 391.134C977.443 389.239 976.314 387.545 975.232 385.922C974.948 385.496 974.667 385.075 974.399 384.656C973.084 382.604 971.971 380.409 971.988 378.108C972.005 375.802 973.47 373.482 975.57 373.109L975.57 373.109C976.956 372.86 978.429 373.442 979.648 374.367L979.649 374.367C981.372 375.668 982.63 377.57 983.168 379.671C983.491 380.942 983.554 382.265 983.616 383.647L983.618 383.703C983.679 385.05 983.741 386.455 984.079 387.821C984.498 389.534 985.329 391.106 986.125 392.612C986.186 392.727 986.247 392.841 986.307 392.955C987.168 394.589 987.952 396.159 988.229 397.871Z" fill="#04D361" stroke="#04D361"/>
<path d="M986.57 435.448C985.95 427.075 983.798 417.615 979.121 410.648" stroke="#04D361" stroke-width="0.779" stroke-miterlimit="10"/>
<path d="M977.993 404.35L977.993 404.352C978.663 406.22 979.076 408.177 979.421 410.15L979.422 410.151C979.44 410.255 979.472 410.389 979.503 410.52C979.515 410.571 979.526 410.621 979.537 410.67C979.581 410.859 979.62 411.052 979.642 411.236C979.663 411.424 979.662 411.573 979.64 411.681C979.62 411.785 979.589 411.81 979.58 411.816L979.58 411.816C979.576 411.82 979.539 411.847 979.411 411.828C979.282 411.808 979.116 411.749 978.925 411.65C978.546 411.456 978.175 411.165 977.987 410.998C977.651 410.69 977.353 410.334 977.054 409.946C976.949 409.809 976.839 409.663 976.728 409.514C976.535 409.258 976.336 408.992 976.135 408.744L976.135 408.744C973.423 405.41 969.14 403.806 965.003 403.213C962.933 402.917 960.851 402.839 958.785 402.805C958.239 402.797 957.695 402.791 957.153 402.785C955.634 402.77 954.128 402.754 952.622 402.67L952.619 402.67C951.682 402.624 950.838 402.522 950.213 402.078C949.397 401.494 949.057 400.299 949.307 399.209C949.556 398.131 950.299 397.177 951.215 396.39L951.215 396.39C953.238 394.651 955.925 393.774 958.636 393.597C961.348 393.419 964.087 393.907 966.762 394.631L966.762 394.631C969.34 395.328 971.853 396.264 973.829 397.927C975.783 399.578 977.118 401.884 977.993 404.35ZM979.986 410.389C979.956 410.264 979.93 410.153 979.914 410.063L977.652 411.369C978.063 411.735 979.285 412.657 979.877 412.218C980.336 411.879 980.125 410.98 979.986 410.389Z" fill="#04D361" stroke="#04D361"/>
<path d="M986.397 436.343C986.033 429.038 982.75 421.916 977.443 416.894" stroke="#04D361" stroke-width="0.779" stroke-miterlimit="10"/>
<path d="M978.511 417.408C978.296 417.019 978.077 416.542 977.882 416.117C977.688 415.696 977.518 415.325 977.397 415.14M978.511 417.408L968.835 410.392C970.887 410.968 973.011 411.616 974.899 412.62L974.899 412.62C975.036 412.693 975.172 412.766 975.309 412.849C976.23 413.369 976.823 414.264 977.397 415.14M978.511 417.408C978.29 417.334 978.067 417.266 977.841 417.204M978.511 417.408L978.173 417.823M977.397 415.14L976.979 415.414M977.397 415.14L976.979 415.414C976.979 415.414 976.979 415.414 976.979 415.414M977.841 417.204C977.948 417.42 978.06 417.633 978.173 417.823M977.841 417.204C975.373 416.528 972.657 416.553 970.281 416.576L970.253 416.576M977.841 417.204C977.807 417.135 977.773 417.065 977.74 416.996C977.631 416.77 977.524 416.536 977.425 416.32C977.378 416.218 977.332 416.119 977.29 416.028C977.15 415.727 977.046 415.517 976.979 415.414M978.173 417.823C975.667 417.028 972.819 417.052 970.257 417.076C967.066 417.104 963.874 417.697 960.893 418.848C960.514 418.995 960.137 419.152 959.759 419.309C958.271 419.928 956.775 420.55 955.175 420.637C954.063 420.692 952.731 420.327 952.394 419.259L978.173 417.823ZM970.253 416.576L968.7 410.874C970.751 411.449 972.829 412.085 974.664 413.062L974.898 412.621L974.663 413.061C974.802 413.135 974.927 413.202 975.052 413.277L975.051 413.277L975.063 413.284C975.861 413.735 976.393 414.52 976.979 415.414M970.253 416.576C970.253 416.576 970.253 416.576 970.253 416.576L970.257 417.075L970.253 416.576ZM962.83 410.153C964.719 409.786 966.692 410.311 968.7 410.874L962.83 410.153ZM955.149 420.138C954.65 420.162 954.118 420.091 953.689 419.909C953.265 419.729 952.983 419.462 952.871 419.11C952.696 418.535 953 417.853 953.515 417.166L953.515 417.166L953.516 417.164C954.534 415.793 955.848 414.669 957.204 413.512C958.973 412.009 960.727 410.562 962.83 410.153L955.149 420.138Z" fill="#04D361" stroke="#04D361"/>
<path d="M1208.58 406.672L1208.58 406.671C1210.09 405.17 1210.77 403.087 1211.38 401.192C1211.47 400.925 1211.55 400.661 1211.64 400.404C1212.36 398.259 1213.38 396.159 1215.2 395.28C1217.31 394.266 1219.76 395.246 1221.85 396.592C1222.08 396.746 1222.33 396.906 1222.57 397.068C1223.38 397.603 1224.24 398.165 1225.12 398.615C1226.28 399.207 1227.54 399.634 1228.94 399.585C1230.04 399.545 1231.11 399.204 1232.1 398.88L1232.17 398.856C1233.16 398.534 1234.08 398.235 1235.01 398.168C1237.62 397.992 1239.89 399.665 1242.05 401.418L1242.06 401.419C1243.63 402.687 1245.11 403.953 1245.6 405.728L1245.6 405.728C1246.19 407.872 1245.1 410.45 1243.23 412.005L1243.23 412.006C1241.38 413.563 1238.91 414.21 1236.51 414.263L1236.51 414.263C1236.22 414.27 1235.92 414.272 1235.61 414.273C1234.75 414.277 1233.84 414.281 1232.98 414.401C1231.79 414.568 1230.6 414.968 1229.71 415.962L1229.71 415.962C1228.83 416.932 1228.53 418.152 1228.31 419.294C1228.27 419.476 1228.24 419.655 1228.21 419.832C1228.03 420.806 1227.86 421.705 1227.45 422.506C1226.48 424.399 1224.19 425.421 1222.05 425.412C1219.91 425.403 1217.89 424.594 1215.82 423.763L1215.77 423.74C1213.71 422.914 1211.46 422.047 1209.06 422.153C1206.84 422.249 1204.7 423.177 1202.7 424.051C1202.31 424.221 1201.92 424.388 1201.54 424.547L1201.54 424.547C1200.51 424.983 1199.07 425.571 1197.71 425.796C1196.33 426.025 1195.21 425.851 1194.58 425.016L1194.57 425.014C1194.29 424.649 1194.14 424.139 1194.11 423.497C1194.08 422.857 1194.18 422.127 1194.34 421.367C1194.67 419.893 1195.25 418.391 1195.66 417.345C1195.68 417.312 1195.69 417.278 1195.7 417.246C1196.79 414.472 1198.6 411.89 1201.1 410.458C1201.99 409.952 1202.94 409.593 1203.94 409.22C1204.25 409.103 1204.56 408.984 1204.88 408.858C1206.19 408.346 1207.51 407.733 1208.58 406.672Z" fill="#04D361" stroke="#04D361"/>
<path d="M1194.62 425.072C1206.75 414.635 1220.91 407.723 1236.2 404.783" stroke="white" stroke-width="0.7047" stroke-miterlimit="10" stroke-linecap="round" stroke-linejoin="round"/>
<path d="M1206.62 409.02C1206.9 405.577 1206.25 401.989 1207.38 398.729C1209.4 392.921 1216.38 389.89 1218.13 384C1220.23 376.96 1213.83 369.774 1214.94 362.515C1215.41 359.456 1217.17 356.762 1218.26 353.868C1219.35 350.973 1219.64 347.348 1217.51 345.093C1215.29 342.737 1211.25 343.011 1208.6 344.892C1205.96 346.773 1204.44 349.823 1203.2 352.827C1201.96 355.831 1200.88 358.972 1198.79 361.465C1194.99 366.003 1188.15 367.994 1186.07 373.536C1183.96 379.179 1187.96 385.151 1188.67 391.132C1189.21 395.661 1187.83 400.172 1186.6 404.573C1185.38 408.974 1184.29 413.631 1185.41 418.05C1186.91 423.94 1192.21 427.693 1197.29 423.912C1202.31 420.196 1206.1 415.493 1206.62 409.02Z" fill="#04D361"/>
<path d="M1194.07 425.355C1192.05 404.335 1196.67 381.535 1207.45 363.383" stroke="white" stroke-width="1.1364" stroke-miterlimit="10" stroke-linecap="round" stroke-linejoin="round"/>
<path d="M1180.65 417.429C1178.43 414.297 1177.16 410.38 1174.15 407.997C1170.71 405.257 1165.93 405.23 1161.55 404.874C1157.17 404.518 1152.22 403.276 1150.19 399.368C1149.08 397.222 1149.08 394.675 1148.3 392.392C1147.44 389.881 1145.69 387.799 1144.46 385.452C1143.24 383.105 1142.59 380.12 1144.02 377.882C1145.46 375.618 1148.61 374.951 1151.19 375.682C1153.77 376.412 1155.89 378.229 1157.82 380.092C1159.76 381.955 1161.64 383.946 1164.02 385.169C1167.97 387.187 1172.66 386.813 1177.09 386.621C1181.52 386.438 1186.35 386.621 1189.78 389.452C1192.6 391.78 1193.89 395.442 1195.03 398.92C1196.69 403.897 1198.39 408.855 1200 413.85C1201 416.918 1202.9 421.62 1199.7 424.031C1194.08 428.277 1183.89 422.004 1180.65 417.429Z" fill="#04D361"/>
<path d="M1197.93 424.214C1190.89 407.851 1175.99 393.917 1158.15 387.771" stroke="white" stroke-width="0.8174" stroke-miterlimit="10" stroke-linecap="round" stroke-linejoin="round"/>
<path d="M792.359 423.462C794.374 420.458 795.541 416.605 798.249 414.404C801.359 411.893 805.635 412.222 809.574 412.176C813.505 412.14 817.945 411.254 819.805 407.456C820.827 405.374 820.836 402.799 821.556 400.543C822.34 398.069 823.927 396.097 825.049 393.814C826.161 391.531 826.763 388.563 825.514 386.198C824.237 383.806 821.419 382.902 819.103 383.45C816.787 383.998 814.872 385.678 813.131 387.413C811.389 389.148 809.684 391.02 807.532 392.079C803.976 393.832 799.781 393.102 795.805 392.581C791.83 392.07 787.498 391.905 784.407 394.508C781.863 396.653 780.687 400.26 779.62 403.684C778.097 408.588 776.538 413.473 775.051 418.395C774.14 421.426 772.398 426.028 775.243 428.704C780.231 433.433 789.413 427.845 792.359 423.462Z" fill="#04D361"/>
<path d="M776.82 429.051C783.258 413.035 796.717 400.059 812.748 395.156" stroke="white" stroke-width="0.7781" stroke-miterlimit="10" stroke-linecap="round" stroke-linejoin="round"/>
<path d="M767.994 415.053C767.775 411.884 768.285 408.588 767.383 405.584C765.769 400.242 760.17 397.457 758.766 392.042C757.088 385.568 762.212 378.958 761.328 372.274C760.954 369.461 759.541 366.987 758.665 364.32C757.79 361.654 757.562 358.321 759.267 356.249C761.054 354.075 764.282 354.331 766.407 356.066C768.523 357.801 769.744 360.604 770.738 363.362C771.723 366.119 772.599 369.014 774.267 371.306C777.313 375.479 782.793 377.305 784.453 382.409C786.149 387.605 782.939 393.092 782.374 398.599C781.945 402.771 783.048 406.917 784.033 410.962C785.018 415.007 785.884 419.29 784.982 423.362C783.787 428.777 779.538 432.228 775.471 428.758C771.45 425.334 768.413 421.006 767.994 415.053Z" fill="#04D361"/>
<path d="M778.042 430.073C779.656 410.743 775.954 389.769 767.328 373.068" stroke="white" stroke-width="0.9754" stroke-miterlimit="10" stroke-linecap="round" stroke-linejoin="round"/>
<path d="M716.2 399.594C715.461 402.762 716.993 406.588 719.41 408.962C721.826 411.346 724.963 412.45 727.945 412.715L735.75 415.29L736.144 414.982C736.144 414.982 736.144 414.982 736.144 414.982C735.083 413.624 733.691 412.998 732.25 412.679C731.211 412.449 730.102 412.372 729.067 412.3C728.696 412.274 728.335 412.249 727.99 412.217L727.989 412.217C725.094 411.96 722.076 410.89 719.761 408.606L719.76 408.606C717.432 406.319 715.998 402.662 716.687 399.708M716.2 399.594L716.687 399.708C716.687 399.708 716.687 399.708 716.687 399.708M716.2 399.594L716.687 399.707C716.687 399.707 716.687 399.708 716.687 399.708M716.2 399.594C716.811 396.991 718.735 395.275 720.568 393.713C723.112 391.54 725.984 389.267 729.404 389.751M716.687 399.708C717.256 397.286 719.047 395.666 720.892 394.094L720.893 394.094C723.468 391.894 726.171 389.798 729.334 390.246L729.335 390.246C730.472 390.405 731.598 390.886 732.8 391.399C732.826 391.41 732.851 391.421 732.877 391.432C734.079 391.945 735.36 392.485 736.684 392.622M736.684 392.622C738.356 392.795 739.862 392.318 741.244 391.61C742.292 391.073 743.303 390.382 744.267 389.724C744.562 389.523 744.851 389.325 745.137 389.135L745.138 389.134C747.618 387.475 750.559 386.326 753.176 387.879M736.684 392.622L736.735 392.125L736.684 392.622C736.684 392.622 736.684 392.622 736.684 392.622ZM729.404 389.751L729.404 389.751L729.404 389.751ZM729.404 389.751C730.608 389.919 731.789 390.423 732.968 390.927C734.217 391.46 735.464 391.993 736.735 392.125C739.451 392.406 741.749 390.837 743.967 389.323C744.266 389.119 744.563 388.916 744.86 388.719C747.358 387.048 750.541 385.733 753.431 387.45M753.431 387.45L753.175 387.879C753.175 387.879 753.175 387.879 753.176 387.879M753.431 387.45L753.176 387.879C753.176 387.879 753.176 387.879 753.176 387.879M753.431 387.45C755.893 388.92 757.252 392.097 758.164 395.056L761.47 403.811M753.176 387.879C754.306 388.554 755.207 389.637 755.943 390.94C756.679 392.243 757.235 393.739 757.686 395.203L757.686 395.204C757.8 395.568 757.911 395.939 758.024 396.313C758.812 398.923 759.656 401.719 761.47 403.811M761.47 403.811C762.758 405.303 764.34 406.222 765.927 407.015C766.315 407.209 766.701 407.394 767.083 407.578C768.288 408.156 769.456 408.718 770.544 409.473L770.545 409.474C773.646 411.62 775.913 415.294 777.298 419.165C777.316 419.216 777.334 419.268 777.353 419.321C777.866 420.759 778.607 422.839 779.036 424.867C779.258 425.918 779.391 426.934 779.371 427.825C779.35 428.722 779.173 429.441 778.826 429.944L778.824 429.946C778.065 431.054 776.711 431.2 775.027 430.783C773.367 430.372 771.613 429.462 770.353 428.792L770.353 428.792C769.9 428.552 769.442 428.301 768.979 428.048C767.98 427.501 766.96 426.943 765.94 426.461C764.44 425.751 762.885 425.175 761.275 424.993L761.275 424.993C758.391 424.666 755.701 425.658 753.24 426.622L753.167 426.651C750.699 427.617 748.292 428.56 745.703 428.396C743.11 428.233 740.255 426.675 738.986 423.938L761.47 403.811ZM761.47 403.811L761.848 403.484L761.469 403.81C761.469 403.811 761.47 403.811 761.47 403.811ZM770.118 429.233C769.654 428.987 769.189 428.733 768.723 428.478C766.271 427.137 763.793 425.781 761.218 425.489C758.474 425.179 755.893 426.12 753.422 427.087L753.303 427.134C750.87 428.087 748.372 429.066 745.671 428.895C742.927 428.722 739.89 427.078 738.531 424.147L770.118 429.233ZM770.118 429.233C772.626 430.566 777.34 432.995 779.237 430.229L770.118 429.233Z" fill="#04D361" stroke="#04D361"/>
<path d="M778.699 429.854C763.827 414.824 746.583 404.397 728.091 399.247" stroke="white" stroke-width="0.8986" stroke-miterlimit="10" stroke-linecap="round" stroke-linejoin="round"/>
<path d="M1204.85 157.597C1204.85 160.491 1202.5 162.838 1199.61 162.838C1196.72 162.838 1194.38 160.491 1194.38 157.597C1194.38 154.702 1196.72 152.355 1199.61 152.355C1202.49 152.355 1204.85 154.702 1204.85 157.597Z" stroke="#04D361" stroke-width="2" stroke-miterlimit="10" stroke-linecap="round" stroke-linejoin="round"/>
<path d="M1203.4 161.213L1207.09 164.919" stroke="#04D361" stroke-width="2" stroke-miterlimit="10" stroke-linecap="round" stroke-linejoin="round"/>
<path d="M1000.07 87L1005.57 92.5142" stroke="#04D361" stroke-width="2" stroke-miterlimit="10" stroke-linecap="round" stroke-linejoin="round"/>
<path d="M1005.57 87L1000.07 92.5142" stroke="#04D361" stroke-width="2" stroke-miterlimit="10" stroke-linecap="round" stroke-linejoin="round"/>
<path d="M1078.99 404.459L1084.5 409.974" stroke="#04D361" stroke-width="2" stroke-miterlimit="10" stroke-linecap="round" stroke-linejoin="round"/>
<path d="M1084.5 404.459L1078.99 409.974" stroke="#04D361" stroke-width="2" stroke-miterlimit="10" stroke-linecap="round" stroke-linejoin="round"/>
<path d="M729.535 331.386V339.184" stroke="#04D361" stroke-width="2" stroke-miterlimit="10" stroke-linecap="round" stroke-linejoin="round"/>
<path d="M733.439 335.284H725.642" stroke="#04D361" stroke-width="2" stroke-miterlimit="10" stroke-linecap="round" stroke-linejoin="round"/>
<path d="M712.599 271.515C712.599 274.126 710.484 276.254 707.867 276.254C705.259 276.254 703.134 274.136 703.134 271.515C703.134 268.903 705.25 266.776 707.867 266.776C710.484 266.785 712.599 268.903 712.599 271.515Z" stroke="#04D361" stroke-width="2" stroke-miterlimit="10" stroke-linecap="round" stroke-linejoin="round"/>
<path d="M909.027 386.134C909.027 388.746 906.912 390.873 904.295 390.873C901.687 390.873 899.562 388.755 899.562 386.134C899.562 383.523 901.678 381.395 904.295 381.395C906.912 381.404 909.027 383.523 909.027 386.134Z" stroke="#04D361" stroke-width="2" stroke-miterlimit="10" stroke-linecap="round" stroke-linejoin="round"/>
<path d="M1221.34 300.786C1221.34 303.398 1219.22 305.525 1216.61 305.525C1214 305.525 1211.87 303.407 1211.87 300.786C1211.87 298.175 1213.99 296.047 1216.61 296.047C1219.22 296.056 1221.34 298.175 1221.34 300.786Z" stroke="#04D361" stroke-width="2" stroke-miterlimit="10" stroke-linecap="round" stroke-linejoin="round"/>
<path d="M683.928 188.464C683.928 189.137 683.384 189.68 682.714 189.68C682.044 189.68 681.5 189.137 681.5 188.464C681.5 187.792 682.044 187.248 682.714 187.248C683.384 187.248 683.928 187.792 683.928 188.464Z" fill="#9871F5" stroke="#9871F5"/>
<path d="M695.901 188.464C695.901 189.137 695.356 189.68 694.687 189.68C694.017 189.68 693.473 189.137 693.473 188.464C693.473 187.792 694.017 187.248 694.687 187.248C695.356 187.248 695.901 187.792 695.901 188.464Z" fill="#9871F5" stroke="#9871F5"/>
<path d="M707.864 188.464C707.864 189.137 707.32 189.68 706.65 189.68C705.98 189.68 705.436 189.137 705.436 188.464C705.436 187.792 705.98 187.248 706.65 187.248C707.32 187.248 707.864 187.792 707.864 188.464Z" fill="#9871F5" stroke="#9871F5"/>
<path d="M719.837 188.464C719.837 189.137 719.293 189.68 718.623 189.68C717.953 189.68 717.409 189.137 717.409 188.464C717.409 187.792 717.953 187.248 718.623 187.248C719.293 187.248 719.837 187.792 719.837 188.464Z" fill="#9871F5" stroke="#9871F5"/>
<path d="M731.801 188.464C731.801 189.137 731.256 189.68 730.587 189.68C729.917 189.68 729.373 189.137 729.373 188.464C729.373 187.792 729.917 187.248 730.587 187.248C731.256 187.248 731.801 187.792 731.801 188.464Z" fill="#9871F5" stroke="#9871F5"/>
<path d="M743.773 188.464C743.773 189.137 743.229 189.68 742.559 189.68C741.889 189.68 741.345 189.137 741.345 188.464C741.345 187.792 741.889 187.248 742.559 187.248C743.229 187.248 743.773 187.792 743.773 188.464Z" fill="#9871F5" stroke="#9871F5"/>
<path d="M683.928 200.444C683.928 201.117 683.384 201.66 682.714 201.66C682.044 201.66 681.5 201.117 681.5 200.444C681.5 199.772 682.044 199.228 682.714 199.228C683.384 199.228 683.928 199.772 683.928 200.444Z" fill="#9871F5" stroke="#9871F5"/>
<path d="M695.901 200.444C695.901 201.117 695.356 201.66 694.687 201.66C694.017 201.66 693.473 201.117 693.473 200.444C693.473 199.772 694.017 199.228 694.687 199.228C695.356 199.228 695.901 199.772 695.901 200.444Z" fill="#9871F5" stroke="#9871F5"/>
<path d="M707.865 200.444C707.865 201.117 707.32 201.66 706.651 201.66C705.981 201.66 705.437 201.117 705.437 200.444C705.437 199.772 705.981 199.228 706.651 199.228C707.32 199.228 707.865 199.772 707.865 200.444Z" fill="#9871F5" stroke="#9871F5"/>
<path d="M719.837 200.444C719.837 201.117 719.293 201.66 718.623 201.66C717.953 201.66 717.409 201.117 717.409 200.444C717.409 199.772 717.953 199.228 718.623 199.228C719.293 199.228 719.837 199.772 719.837 200.444Z" fill="#9871F5" stroke="#9871F5"/>
<path d="M731.801 200.444C731.801 201.117 731.256 201.66 730.587 201.66C729.917 201.66 729.373 201.117 729.373 200.444C729.373 199.772 729.917 199.228 730.587 199.228C731.256 199.228 731.801 199.772 731.801 200.444Z" fill="#9871F5" stroke="#9871F5"/>
<path d="M743.773 200.444C743.773 201.117 743.229 201.66 742.559 201.66C741.889 201.66 741.345 201.117 741.345 200.444C741.345 199.772 741.889 199.228 742.559 199.228C743.229 199.228 743.773 199.772 743.773 200.444Z" fill="#9871F5" stroke="#9871F5"/>
<path d="M683.928 212.433C683.928 213.106 683.384 213.649 682.714 213.649C682.044 213.649 681.5 213.106 681.5 212.433C681.5 211.761 682.044 211.217 682.714 211.217C683.384 211.217 683.928 211.761 683.928 212.433Z" fill="#9871F5" stroke="#9871F5"/>
<path d="M695.901 212.433C695.901 213.106 695.356 213.649 694.687 213.649C694.017 213.649 693.473 213.106 693.473 212.433C693.473 211.761 694.017 211.217 694.687 211.217C695.356 211.217 695.901 211.761 695.901 212.433Z" fill="#9871F5" stroke="#9871F5"/>
<path d="M707.865 212.433C707.865 213.106 707.32 213.649 706.651 213.649C705.981 213.649 705.437 213.106 705.437 212.433C705.437 211.761 705.981 211.217 706.651 211.217C707.32 211.217 707.865 211.761 707.865 212.433Z" fill="#9871F5" stroke="#9871F5"/>
<path d="M719.837 212.433C719.837 213.106 719.293 213.649 718.623 213.649C717.953 213.649 717.409 213.106 717.409 212.433C717.409 211.761 717.953 211.217 718.623 211.217C719.293 211.217 719.837 211.761 719.837 212.433Z" fill="#9871F5" stroke="#9871F5"/>
<path d="M731.801 212.433C731.801 213.106 731.256 213.649 730.587 213.649C729.917 213.649 729.373 213.106 729.373 212.433C729.373 211.761 729.917 211.217 730.587 211.217C731.256 211.217 731.801 211.761 731.801 212.433Z" fill="#9871F5" stroke="#9871F5"/>
<path d="M743.773 212.433C743.773 213.106 743.229 213.649 742.559 213.649C741.889 213.649 741.345 213.106 741.345 212.433C741.345 211.761 741.889 211.217 742.559 211.217C743.229 211.217 743.773 211.761 743.773 212.433Z" fill="#9871F5" stroke="#9871F5"/>
<path d="M683.928 224.413C683.928 225.086 683.384 225.629 682.714 225.629C682.044 225.629 681.5 225.086 681.5 224.413C681.5 223.741 682.044 223.197 682.714 223.197C683.384 223.197 683.928 223.741 683.928 224.413Z" fill="#9871F5" stroke="#9871F5"/>
<path d="M695.901 224.413C695.901 225.086 695.356 225.629 694.687 225.629C694.017 225.629 693.473 225.086 693.473 224.413C693.473 223.741 694.017 223.197 694.687 223.197C695.356 223.197 695.901 223.741 695.901 224.413Z" fill="#9871F5" stroke="#9871F5"/>
<path d="M707.865 224.413C707.865 225.086 707.32 225.629 706.651 225.629C705.981 225.629 705.437 225.086 705.437 224.413C705.437 223.741 705.981 223.197 706.651 223.197C707.32 223.197 707.865 223.741 707.865 224.413Z" fill="#9871F5" stroke="#9871F5"/>
<path d="M719.837 224.413C719.837 225.086 719.293 225.629 718.623 225.629C717.953 225.629 717.409 225.086 717.409 224.413C717.409 223.741 717.953 223.197 718.623 223.197C719.293 223.197 719.837 223.741 719.837 224.413Z" fill="#9871F5" stroke="#9871F5"/>
<path d="M731.801 224.413C731.801 225.086 731.256 225.629 730.587 225.629C729.917 225.629 729.373 225.086 729.373 224.413C729.373 223.741 729.917 223.197 730.587 223.197C731.256 223.197 731.801 223.741 731.801 224.413Z" fill="#9871F5" stroke="#9871F5"/>
<path d="M743.773 224.413C743.773 225.086 743.229 225.629 742.559 225.629C741.889 225.629 741.345 225.086 741.345 224.413C741.345 223.741 741.889 223.197 742.559 223.197C743.229 223.197 743.773 223.741 743.773 224.413Z" fill="#9871F5" stroke="#9871F5"/>
<path d="M868.624 414.189C868.624 414.862 868.08 415.406 867.41 415.406C866.74 415.406 866.196 414.862 866.196 414.189C866.196 413.517 866.74 412.973 867.41 412.973C868.08 412.973 868.624 413.517 868.624 414.189Z" fill="#9871F5" stroke="#9871F5"/>
<path d="M880.597 414.189C880.597 414.862 880.052 415.406 879.383 415.406C878.713 415.406 878.169 414.862 878.169 414.189C878.169 413.517 878.713 412.973 879.383 412.973C880.052 412.973 880.597 413.517 880.597 414.189Z" fill="#9871F5" stroke="#9871F5"/>
<path d="M892.56 414.189C892.56 414.862 892.016 415.406 891.346 415.406C890.676 415.406 890.132 414.862 890.132 414.189C890.132 413.517 890.676 412.973 891.346 412.973C892.016 412.973 892.56 413.517 892.56 414.189Z" fill="#9871F5" stroke="#9871F5"/>
<path d="M904.533 414.189C904.533 414.862 903.989 415.406 903.319 415.406C902.649 415.406 902.105 414.862 902.105 414.189C902.105 413.517 902.649 412.973 903.319 412.973C903.989 412.973 904.533 413.517 904.533 414.189Z" fill="#9871F5" stroke="#9871F5"/>
<path d="M916.496 414.189C916.496 414.862 915.952 415.406 915.282 415.406C914.613 415.406 914.068 414.862 914.068 414.189C914.068 413.517 914.613 412.973 915.282 412.973C915.952 412.973 916.496 413.517 916.496 414.189Z" fill="#9871F5" stroke="#9871F5"/>
<path d="M868.624 426.178C868.624 426.851 868.08 427.395 867.41 427.395C866.74 427.395 866.196 426.851 866.196 426.178C866.196 425.506 866.74 424.962 867.41 424.962C868.08 424.962 868.624 425.506 868.624 426.178Z" fill="#9871F5" stroke="#9871F5"/>
<path d="M880.596 426.178C880.596 426.851 880.052 427.395 879.382 427.395C878.713 427.395 878.168 426.851 878.168 426.178C878.168 425.506 878.713 424.962 879.382 424.962C880.052 424.962 880.596 425.506 880.596 426.178Z" fill="#9871F5" stroke="#9871F5"/>
<path d="M892.56 426.178C892.56 426.851 892.016 427.395 891.346 427.395C890.676 427.395 890.132 426.851 890.132 426.178C890.132 425.506 890.676 424.962 891.346 424.962C892.016 424.962 892.56 425.506 892.56 426.178Z" fill="#9871F5" stroke="#9871F5"/>
<path d="M904.533 426.178C904.533 426.851 903.989 427.395 903.319 427.395C902.649 427.395 902.105 426.851 902.105 426.178C902.105 425.506 902.649 424.962 903.319 424.962C903.989 424.962 904.533 425.506 904.533 426.178Z" fill="#9871F5" stroke="#9871F5"/>
<path d="M916.496 426.178C916.496 426.851 915.952 427.395 915.282 427.395C914.613 427.395 914.068 426.851 914.068 426.178C914.068 425.506 914.613 424.962 915.282 424.962C915.952 424.962 916.496 425.506 916.496 426.178Z" fill="#9871F5" stroke="#9871F5"/>
<path d="M1171.93 114.398C1171.93 115.07 1171.39 115.614 1170.72 115.614C1170.05 115.614 1169.5 115.07 1169.5 114.398C1169.5 113.725 1170.05 113.181 1170.72 113.181C1171.39 113.181 1171.93 113.725 1171.93 114.398Z" fill="#9871F5" stroke="#9871F5"/>
<path d="M1183.89 114.398C1183.89 115.07 1183.35 115.614 1182.68 115.614C1182.01 115.614 1181.47 115.07 1181.47 114.398C1181.47 113.725 1182.01 113.181 1182.68 113.181C1183.35 113.181 1183.89 113.725 1183.89 114.398Z" fill="#9871F5" stroke="#9871F5"/>
<path d="M1195.87 114.398C1195.87 115.07 1195.32 115.614 1194.65 115.614C1193.98 115.614 1193.44 115.07 1193.44 114.398C1193.44 113.725 1193.98 113.181 1194.65 113.181C1195.32 113.181 1195.87 113.725 1195.87 114.398Z" fill="#9871F5" stroke="#9871F5"/>
<path d="M1171.93 126.387C1171.93 127.059 1171.39 127.603 1170.72 127.603C1170.05 127.603 1169.5 127.059 1169.5 126.387C1169.5 125.714 1170.05 125.17 1170.72 125.17C1171.39 125.17 1171.93 125.714 1171.93 126.387Z" fill="#9871F5" stroke="#9871F5"/>
<path d="M1183.89 126.387C1183.89 127.059 1183.35 127.603 1182.68 127.603C1182.01 127.603 1181.47 127.059 1181.47 126.387C1181.47 125.714 1182.01 125.17 1182.68 125.17C1183.35 125.17 1183.89 125.714 1183.89 126.387Z" fill="#9871F5" stroke="#9871F5"/>
<path d="M1195.87 126.387C1195.87 127.059 1195.32 127.603 1194.65 127.603C1193.98 127.603 1193.44 127.059 1193.44 126.387C1193.44 125.714 1193.98 125.17 1194.65 125.17C1195.32 125.17 1195.87 125.714 1195.87 126.387Z" fill="#9871F5" stroke="#9871F5"/>
<path d="M858.582 91.7163C858.582 92.3888 858.038 92.9327 857.368 92.9327C856.698 92.9327 856.154 92.3887 856.154 91.7163C856.154 91.0439 856.698 90.5 857.368 90.5C858.038 90.5 858.582 91.0439 858.582 91.7163Z" fill="#9871F5" stroke="#9871F5"/>
<path d="M870.546 91.7163C870.546 92.3888 870.002 92.9327 869.332 92.9327C868.662 92.9327 868.118 92.3888 868.118 91.7163C868.118 91.0439 868.662 90.5 869.332 90.5C870.002 90.5 870.546 91.0439 870.546 91.7163Z" fill="#9871F5" stroke="#9871F5"/>
<path d="M882.518 91.7163C882.518 92.3888 881.974 92.9327 881.304 92.9327C880.635 92.9327 880.09 92.3888 880.09 91.7163C880.09 91.0439 880.635 90.5 881.304 90.5C881.974 90.5 882.518 91.0439 882.518 91.7163Z" fill="#9871F5" stroke="#9871F5"/>
<path d="M858.582 103.705C858.582 104.378 858.038 104.922 857.368 104.922C856.698 104.922 856.154 104.378 856.154 103.705C856.154 103.033 856.698 102.489 857.368 102.489C858.038 102.489 858.582 103.033 858.582 103.705Z" fill="#9871F5" stroke="#9871F5"/>
<path d="M870.546 103.705C870.546 104.378 870.001 104.922 869.332 104.922C868.662 104.922 868.118 104.378 868.118 103.705C868.118 103.033 868.662 102.489 869.332 102.489C870.002 102.489 870.546 103.033 870.546 103.705Z" fill="#9871F5" stroke="#9871F5"/>
<path d="M882.518 103.705C882.518 104.378 881.974 104.922 881.304 104.922C880.635 104.922 880.09 104.378 880.09 103.705C880.09 103.033 880.635 102.489 881.304 102.489C881.974 102.489 882.518 103.033 882.518 103.705Z" fill="#9871F5" stroke="#9871F5"/>
<path d="M1279.5 276.4C1279.5 277.072 1278.96 277.616 1278.29 277.616C1277.62 277.616 1277.07 277.072 1277.07 276.4C1277.07 275.728 1277.62 275.184 1278.29 275.184C1278.96 275.184 1279.5 275.728 1279.5 276.4Z" fill="#9871F5" stroke="#9871F5"/>
<path d="M1279.5 288.389C1279.5 289.061 1278.96 289.605 1278.29 289.605C1277.62 289.605 1277.07 289.061 1277.07 288.389C1277.07 287.717 1277.62 287.173 1278.29 287.173C1278.96 287.173 1279.5 287.717 1279.5 288.389Z" fill="#9871F5" stroke="#9871F5"/>
<path d="M1279.5 300.369C1279.5 301.041 1278.96 301.585 1278.29 301.585C1277.62 301.585 1277.07 301.041 1277.07 300.369C1277.07 299.697 1277.62 299.153 1278.29 299.153C1278.96 299.153 1279.5 299.697 1279.5 300.369Z" fill="#9871F5" stroke="#9871F5"/>
<path d="M1279.5 312.358C1279.5 313.031 1278.96 313.575 1278.29 313.575C1277.62 313.575 1277.07 313.031 1277.07 312.358C1277.07 311.686 1277.62 311.142 1278.29 311.142C1278.96 311.142 1279.5 311.686 1279.5 312.358Z" fill="#9871F5" stroke="#9871F5"/>
<path d="M1279.5 324.338C1279.5 325.011 1278.96 325.555 1278.29 325.555C1277.62 325.555 1277.07 325.011 1277.07 324.338C1277.07 323.666 1277.62 323.122 1278.29 323.122C1278.96 323.122 1279.5 323.666 1279.5 324.338Z" fill="#9871F5" stroke="#9871F5"/>
<path d="M1279.5 336.327C1279.5 337 1278.96 337.544 1278.29 337.544C1277.62 337.544 1277.07 337 1277.07 336.327C1277.07 335.655 1277.62 335.111 1278.29 335.111C1278.96 335.111 1279.5 335.655 1279.5 336.327Z" fill="#9871F5" stroke="#9871F5"/>
<path d="M1279.5 348.307C1279.5 348.98 1278.96 349.524 1278.29 349.524C1277.62 349.524 1277.07 348.98 1277.07 348.307C1277.07 347.635 1277.62 347.091 1278.29 347.091C1278.96 347.091 1279.5 347.635 1279.5 348.307Z" fill="#9871F5" stroke="#9871F5"/>
<path d="M1267.53 276.4C1267.53 277.072 1266.98 277.616 1266.31 277.616C1265.64 277.616 1265.1 277.072 1265.1 276.4C1265.1 275.728 1265.64 275.184 1266.31 275.184C1266.98 275.184 1267.53 275.728 1267.53 276.4Z" fill="#9871F5" stroke="#9871F5"/>
<path d="M1267.53 288.389C1267.53 289.061 1266.98 289.605 1266.31 289.605C1265.64 289.605 1265.1 289.061 1265.1 288.389C1265.1 287.717 1265.64 287.173 1266.31 287.173C1266.98 287.173 1267.53 287.717 1267.53 288.389Z" fill="#9871F5" stroke="#9871F5"/>
<path d="M1267.53 300.369C1267.53 301.041 1266.98 301.585 1266.31 301.585C1265.64 301.585 1265.1 301.041 1265.1 300.369C1265.1 299.697 1265.64 299.153 1266.31 299.153C1266.98 299.153 1267.53 299.697 1267.53 300.369Z" fill="#9871F5" stroke="#9871F5"/>
<path d="M1267.53 312.358C1267.53 313.031 1266.98 313.575 1266.31 313.575C1265.64 313.575 1265.1 313.031 1265.1 312.358C1265.1 311.686 1265.64 311.142 1266.31 311.142C1266.98 311.142 1267.53 311.686 1267.53 312.358Z" fill="#9871F5" stroke="#9871F5"/>
<path d="M1267.53 324.338C1267.53 325.011 1266.98 325.555 1266.31 325.555C1265.64 325.555 1265.1 325.011 1265.1 324.338C1265.1 323.666 1265.64 323.122 1266.31 323.122C1266.98 323.122 1267.53 323.666 1267.53 324.338Z" fill="#9871F5" stroke="#9871F5"/>
<path d="M1267.53 336.327C1267.53 337 1266.98 337.544 1266.31 337.544C1265.64 337.544 1265.1 337 1265.1 336.327C1265.1 335.655 1265.64 335.111 1266.31 335.111C1266.98 335.111 1267.53 335.655 1267.53 336.327Z" fill="#9871F5" stroke="#9871F5"/>
<path d="M1267.53 348.307C1267.53 348.98 1266.98 349.524 1266.31 349.524C1265.64 349.524 1265.1 348.98 1265.1 348.307C1265.1 347.635 1265.64 347.091 1266.31 347.091C1266.98 347.091 1267.53 347.635 1267.53 348.307Z" fill="#9871F5" stroke="#9871F5"/>
<path d="M1255.56 276.4C1255.56 277.072 1255.02 277.616 1254.35 277.616C1253.68 277.616 1253.14 277.072 1253.14 276.4C1253.14 275.728 1253.68 275.184 1254.35 275.184C1255.02 275.184 1255.56 275.728 1255.56 276.4Z" fill="#9871F5" stroke="#9871F5"/>
<path d="M1255.56 288.389C1255.56 289.061 1255.02 289.605 1254.35 289.605C1253.68 289.605 1253.14 289.061 1253.14 288.389C1253.14 287.717 1253.68 287.173 1254.35 287.173C1255.02 287.173 1255.56 287.717 1255.56 288.389Z" fill="#9871F5" stroke="#9871F5"/>
<path d="M1255.56 300.369C1255.56 301.041 1255.02 301.585 1254.35 301.585C1253.68 301.585 1253.14 301.041 1253.14 300.369C1253.14 299.697 1253.68 299.153 1254.35 299.153C1255.02 299.153 1255.56 299.697 1255.56 300.369Z" fill="#9871F5" stroke="#9871F5"/>
<path d="M1255.56 312.358C1255.56 313.031 1255.02 313.575 1254.35 313.575C1253.68 313.575 1253.14 313.031 1253.14 312.358C1253.14 311.686 1253.68 311.142 1254.35 311.142C1255.02 311.142 1255.56 311.686 1255.56 312.358Z" fill="#9871F5" stroke="#9871F5"/>
<path d="M1255.56 324.338C1255.56 325.011 1255.02 325.555 1254.35 325.555C1253.68 325.555 1253.14 325.011 1253.14 324.338C1253.14 323.666 1253.68 323.122 1254.35 323.122C1255.02 323.122 1255.56 323.666 1255.56 324.338Z" fill="#9871F5" stroke="#9871F5"/>
<path d="M1255.56 336.327C1255.56 337 1255.02 337.544 1254.35 337.544C1253.68 337.544 1253.14 337 1253.14 336.327C1253.14 335.655 1253.68 335.111 1254.35 335.111C1255.02 335.111 1255.56 335.655 1255.56 336.327Z" fill="#9871F5" stroke="#9871F5"/>
<path d="M1255.56 348.307C1255.56 348.98 1255.02 349.524 1254.35 349.524C1253.68 349.524 1253.14 348.98 1253.14 348.307C1253.14 347.635 1253.68 347.091 1254.35 347.091C1255.02 347.091 1255.56 347.635 1255.56 348.307Z" fill="#9871F5" stroke="#9871F5"/>
<path d="M1243.59 276.4C1243.59 277.072 1243.05 277.616 1242.38 277.616C1241.71 277.616 1241.16 277.072 1241.16 276.4C1241.16 275.728 1241.71 275.184 1242.38 275.184C1243.05 275.184 1243.59 275.728 1243.59 276.4Z" fill="#9871F5" stroke="#9871F5"/>
<path d="M1243.59 288.389C1243.59 289.061 1243.05 289.605 1242.38 289.605C1241.71 289.605 1241.16 289.061 1241.16 288.389C1241.16 287.717 1241.71 287.173 1242.38 287.173C1243.05 287.173 1243.59 287.717 1243.59 288.389Z" fill="#9871F5" stroke="#9871F5"/>
<path d="M1243.59 300.369C1243.59 301.041 1243.05 301.585 1242.38 301.585C1241.71 301.585 1241.16 301.041 1241.16 300.369C1241.16 299.697 1241.71 299.153 1242.38 299.153C1243.05 299.153 1243.59 299.697 1243.59 300.369Z" fill="#9871F5" stroke="#9871F5"/>
<path d="M1243.59 312.358C1243.59 313.031 1243.05 313.575 1242.38 313.575C1241.71 313.575 1241.16 313.031 1241.16 312.358C1241.16 311.686 1241.71 311.142 1242.38 311.142C1243.05 311.142 1243.59 311.686 1243.59 312.358Z" fill="#9871F5" stroke="#9871F5"/>
<path d="M1243.59 324.338C1243.59 325.011 1243.05 325.555 1242.38 325.555C1241.71 325.555 1241.16 325.011 1241.16 324.338C1241.16 323.666 1241.71 323.122 1242.38 323.122C1243.05 323.122 1243.59 323.666 1243.59 324.338Z" fill="#9871F5" stroke="#9871F5"/>
<path d="M1243.59 336.327C1243.59 337 1243.05 337.544 1242.38 337.544C1241.71 337.544 1241.16 337 1241.16 336.327C1241.16 335.655 1241.71 335.111 1242.38 335.111C1243.05 335.111 1243.59 335.655 1243.59 336.327Z" fill="#9871F5" stroke="#9871F5"/>
<path d="M1243.59 348.307C1243.59 348.98 1243.05 349.524 1242.38 349.524C1241.71 349.524 1241.16 348.98 1241.16 348.307C1241.16 347.635 1241.71 347.091 1242.38 347.091C1243.05 347.091 1243.59 347.635 1243.59 348.307Z" fill="#9871F5" stroke="#9871F5"/>
<path d="M1140.05 347.842H829.286C823.676 347.842 819.118 343.248 819.118 337.574V146.031C819.118 140.357 823.676 135.762 829.286 135.762H1140.06C1145.67 135.762 1150.23 140.357 1150.23 146.031V337.573C1150.22 343.248 1145.66 347.842 1140.05 347.842Z" fill="#04D361" stroke="#04D361"/>
<path d="M1139.6 339.268H829.733C824.927 339.268 821.024 335.36 821.024 330.548V146.073C821.024 141.261 824.927 137.353 829.733 137.353H1139.6C1144.41 137.353 1148.31 141.261 1148.31 146.073V330.548C1148.31 335.369 1144.41 339.268 1139.6 339.268Z" fill="white"/>
<path d="M1037.69 154.611V284.765C1037.69 288.691 1034.52 291.869 1030.6 291.869H834.894C833.134 291.869 831.52 291.23 830.28 290.161C828.767 288.856 827.8 286.929 827.8 284.765V154.611C827.8 150.684 830.982 147.507 834.894 147.507H1030.6C1032.36 147.507 1033.98 148.146 1035.21 149.214C1036.73 150.52 1037.69 152.447 1037.69 154.611Z" fill="#E6E6F0"/>
<path d="M1134.5 203.142H1053.49C1049.57 203.142 1046.4 199.965 1046.4 196.038V154.611C1046.4 150.684 1049.57 147.507 1053.49 147.507H1134.5C1138.42 147.507 1141.59 150.684 1141.59 154.611V196.038C1141.59 199.965 1138.41 203.142 1134.5 203.142Z" fill="#E6E6F0"/>
<path d="M1134.5 268.636H1053.49C1049.57 268.636 1046.4 265.458 1046.4 261.532V220.104C1046.4 216.178 1049.57 213 1053.49 213H1134.5C1138.42 213 1141.59 216.178 1141.59 220.104V261.532C1141.59 265.458 1138.41 268.636 1134.5 268.636Z" fill="#E6E6F0"/>
<path d="M1134.5 330.691H1053.49C1049.57 330.691 1046.4 327.513 1046.4 323.587V286.104C1046.4 282.178 1049.57 279 1053.49 279H1134.5C1138.42 279 1141.59 282.178 1141.59 286.104V323.587C1141.59 327.513 1138.41 330.691 1134.5 330.691Z" fill="#E6E6F0"/>
<path d="M934.825 305.84H830.381C828.958 305.84 827.809 304.689 827.809 303.265C827.809 301.84 828.958 300.69 830.381 300.69H934.825C936.247 300.69 937.396 301.84 937.396 303.265C937.396 304.68 936.247 305.84 934.825 305.84Z" fill="#E6E6F0"/>
<path d="M940.853 330H830.484C828.981 330 827.767 328.884 827.767 327.501V317.499C827.767 316.116 828.981 315 830.484 315H940.853C942.357 315 943.571 316.116 943.571 317.499V327.501C943.571 328.884 942.357 330 940.853 330Z" fill="#E6E6F0"/>
<path d="M1012.15 305.84H1035.12C1036.54 305.84 1037.69 304.689 1037.69 303.265C1037.69 301.84 1036.54 300.69 1035.12 300.69H1012.15C1010.73 300.69 1009.58 301.84 1009.58 303.265C1009.58 304.68 1010.73 305.84 1012.15 305.84Z" fill="#E6E6F0"/>
<path d="M973.186 305.84H996.156C997.579 305.84 998.728 304.689 998.728 303.265C998.728 301.84 997.579 300.69 996.156 300.69H973.186C971.764 300.69 970.615 301.84 970.615 303.265C970.606 304.68 971.764 305.84 973.186 305.84Z" fill="#E6E6F0"/>
<path d="M989.564 330.11H1035.12C1036.54 330.11 1037.69 328.959 1037.69 327.535V317.226C1037.69 315.801 1036.54 314.651 1035.12 314.651H989.564C988.141 314.651 986.992 315.801 986.992 317.226V327.535C986.992 328.959 988.141 330.11 989.564 330.11Z" fill="#E6E6F0"/>
<g opacity="0.24">
<path d="M1093.7 190.14C1101.63 190.14 1108.06 183.701 1108.06 175.758C1108.06 167.816 1101.63 161.377 1093.7 161.377C1085.77 161.377 1079.34 167.816 1079.34 175.758C1079.34 183.701 1085.77 190.14 1093.7 190.14Z" fill="#E6E6F0" stroke="#6842C2" stroke-width="2" stroke-miterlimit="10"/>
<path d="M1099.59 174.34L1091.39 169.601C1090.49 169.081 1089.36 169.729 1089.36 170.77V180.248C1089.36 181.289 1090.49 181.937 1091.39 181.417L1099.59 176.678C1100.49 176.157 1100.49 174.861 1099.59 174.34Z" fill="#E6E6F0" stroke="#6842C2" stroke-width="2" stroke-miterlimit="10"/>
</g>
<g opacity="0.24">
<path d="M1093.7 254.763C1101.63 254.763 1108.06 248.324 1108.06 240.381C1108.06 232.439 1101.63 226 1093.7 226C1085.77 226 1079.34 232.439 1079.34 240.381C1079.34 248.324 1085.77 254.763 1093.7 254.763Z" fill="#E6E6F0" stroke="#6842C2" stroke-width="2" stroke-miterlimit="10"/>
<path d="M1099.59 238.963L1091.39 234.224C1090.49 233.704 1089.36 234.352 1089.36 235.393V244.871C1089.36 245.912 1090.49 246.56 1091.39 246.04L1099.59 241.301C1100.49 240.78 1100.49 239.484 1099.59 238.963Z" fill="#E6E6F0" stroke="#6842C2" stroke-width="2" stroke-miterlimit="10"/>
</g>
<g opacity="0.24">
<path d="M1093.7 318.763C1101.63 318.763 1108.06 312.324 1108.06 304.381C1108.06 296.439 1101.63 290 1093.7 290C1085.77 290 1079.34 296.439 1079.34 304.381C1079.34 312.324 1085.77 318.763 1093.7 318.763Z" fill="#E6E6F0" stroke="#6842C2" stroke-width="2" stroke-miterlimit="10"/>
<path d="M1099.59 302.963L1091.39 298.224C1090.49 297.704 1089.36 298.352 1089.36 299.393V308.871C1089.36 309.912 1090.49 310.56 1091.39 310.04L1099.59 305.301C1100.49 304.78 1100.49 303.484 1099.59 302.963Z" fill="#E6E6F0" stroke="#6842C2" stroke-width="2" stroke-miterlimit="10"/>
</g>
<path d="M1035.21 149.214L830.28 290.161C828.767 288.856 827.8 286.929 827.8 284.765V154.611C827.8 150.684 830.982 147.507 834.894 147.507H1030.6C1032.36 147.507 1033.98 148.146 1035.21 149.214Z" fill="#F2F2FA"/>
<mask id="mask0" mask-type="alpha" maskUnits="userSpaceOnUse" x="828" y="118" width="210" height="175">
<path d="M1037.95 126.819V283.587C1037.95 288.316 1034.78 292.144 1030.87 292.144H835.512C833.755 292.144 832.144 291.374 830.906 290.087C829.395 288.514 828.43 286.194 828.43 283.587V126.819C828.43 122.09 831.607 118.262 835.512 118.262H1030.87C1032.62 118.262 1034.24 119.032 1035.47 120.319C1036.99 121.892 1037.95 124.212 1037.95 126.819Z" fill="#A3D1DE"/>
</mask>
<g mask="url(#mask0)">
<path d="M1021.44 228.967C1021.44 228.967 1033.14 219.718 1033.45 217.07C1034.04 212.084 1035.82 208.176 1046.53 204.87C1046.53 204.87 1047.36 206.459 1045.87 208.185C1044.25 210.057 1042.96 210.714 1042.96 210.714C1042.96 210.714 1045.8 211.801 1050.02 208.495C1054.24 205.199 1056.02 202.332 1057.8 203.035C1057.8 203.035 1059.9 201.136 1060.89 201.437C1060.89 201.437 1061.62 201.656 1061.48 202.442C1063.13 202.186 1062.8 206.952 1059.86 210.824C1055.64 216.394 1050.37 221.188 1046.05 222.767C1042.82 223.954 1029.44 237.587 1029.44 237.587L1021.44 228.967Z" fill="#FFCAD0"/>
<path d="M985.315 276.157C980.208 277.882 951.877 234.254 951.877 234.254C940.925 221.635 950.755 180.07 960.667 194.644C960.667 194.644 986.445 241.34 989.226 245.102C992.682 249.777 1004.18 269.774 985.315 276.157Z" fill="#04D361"/>
<path d="M953.39 319.465H878.691C878.691 319.465 872.955 316.936 877.943 305.906C879.813 301.788 879.001 291.177 878.691 276.613C878.062 247.814 869.527 200.013 880.059 194.534C886.369 191.238 899.773 186.901 909.503 183.933C910.086 183.769 910.652 183.595 911.208 183.431C916.889 181.732 920.946 180.609 920.946 180.609C920.946 180.609 925.652 181.294 935.208 184.125C935.728 184.28 936.266 184.444 936.822 184.609C939.311 185.367 942.083 186.252 945.165 187.302C961.871 192.991 959.992 190.964 962.208 211.856C963.977 228.538 953.39 319.465 953.39 319.465Z" fill="#04D361"/>
<path d="M936.822 184.6C936.603 188.142 935.017 191.274 932.6 193.566C930.147 195.913 926.819 197.337 923.19 197.337C915.703 197.337 909.649 191.338 909.494 183.933C910.077 183.769 910.643 183.595 911.199 183.431C916.88 181.732 920.937 180.609 920.937 180.609C920.937 180.609 925.643 181.294 935.199 184.125C935.719 184.271 936.266 184.435 936.822 184.6Z" fill="#F2F2FA"/>
<path d="M935.181 154.695L934.004 177.45L933.667 183.942C933.53 186.7 932.317 189.156 930.439 190.927C928.579 192.699 926.062 193.776 923.308 193.776C917.482 193.776 912.785 188.964 912.94 183.139L913.232 171.551L913.725 152.303L935.181 154.695Z" fill="#FBD5D9"/>
<path d="M935.181 159.242L934.004 180.673C923.937 181.075 916.597 176.984 913.232 171.524L913.725 156.868L935.181 159.242Z" fill="#FFA4AD"/>
<path d="M907.041 132.416C907.041 132.416 897.393 131.21 898.497 143.318C899.354 152.705 912.092 165.233 912.092 165.233C912.092 165.233 920.135 136.945 907.041 132.416Z" fill="#8F4A3F"/>
<path d="M946.442 141.136C945.786 142.633 944.774 143.939 943.944 145.345C943.123 146.751 942.467 148.358 942.649 149.984C942.485 147.345 940.743 145.126 939.239 142.962C937.734 140.789 936.366 138.159 937.087 135.621C937.77 133.183 942.175 129.338 944.856 130.918C947.837 132.671 947.609 138.479 946.442 141.136Z" fill="#0E1235"/>
<path d="M943.169 141.62C943.169 141.62 943.916 149.034 942.877 157.243C941.673 166.73 942.102 177.87 928.141 178.619C913.241 179.413 908.308 162.712 908.308 162.712C908.308 162.712 900.393 161.233 899.855 155.882C899.317 150.522 904.843 150.221 906.649 151.728C906.649 151.728 908.691 131.758 927.12 131.758C943.378 131.74 943.169 141.62 943.169 141.62Z" fill="#FBD5D9"/>
<path d="M925.66 156.859C925.66 157.672 925.004 158.338 924.183 158.338C923.363 158.338 922.706 157.681 922.706 156.859C922.706 156.047 923.363 155.38 924.183 155.38C925.004 155.38 925.66 156.047 925.66 156.859Z" fill="#9A5449"/>
<path d="M939.01 156.859C939.01 157.672 938.353 158.338 937.533 158.338C936.712 158.338 936.056 157.681 936.056 156.859C936.056 156.047 936.712 155.38 937.533 155.38C938.353 155.38 939.01 156.047 939.01 156.859Z" fill="#9A5449"/>
<path d="M918.813 151.719C918.813 151.719 921.001 148.112 925.661 149.408" stroke="#561E15" stroke-width="1.0274" stroke-miterlimit="10" stroke-linecap="round" stroke-linejoin="round"/>
<path d="M933.694 149.354C933.694 149.354 937.059 146.276 940.369 149.646" stroke="#561E15" stroke-width="1.0274" stroke-miterlimit="10" stroke-linecap="round" stroke-linejoin="round"/>
<path d="M930.74 153.015C930.74 153.015 932.335 157.097 933.694 159.635C935.053 162.174 931.041 163.306 931.041 163.306" stroke="#D66D78" stroke-width="0.7706" stroke-miterlimit="10" stroke-linecap="round" stroke-linejoin="round"/>
<path d="M925.396 167.871C925.396 167.871 928.688 171.067 932.919 169.113" stroke="#D66D78" stroke-width="0.7706" stroke-miterlimit="10" stroke-linecap="round" stroke-linejoin="round"/>
<path d="M906.383 157.598C906.383 157.598 906.338 153.006 902.91 154.257" stroke="#D66D78" stroke-width="0.7706" stroke-miterlimit="10" stroke-linecap="round" stroke-linejoin="round"/>
<path d="M910.907 136.25C910.907 136.25 919.287 144.797 914.7 148.066C909.594 151.709 908.801 156.859 908.801 156.859C908.801 156.859 908.91 155.042 906.639 151.719C904.369 148.386 899.418 136.57 910.907 136.25Z" fill="#8F4A3F"/>
<path d="M985.315 276.157C991.406 280.129 1037.7 230.611 1037.7 230.611L1029.48 219.845C1029.48 219.845 994.287 241.961 989.226 245.102C981.932 249.622 964.825 262.807 985.315 276.157Z" fill="#04D361"/>
<path d="M960.694 247.366C960.694 247.366 962.764 224.731 962.409 217.544C962.409 217.544 965.354 236.546 965.427 254.105L960.694 247.366Z" fill="#03A14A"/>
<path d="M882.466 239.651C882.466 239.651 893.308 193.164 881.709 193.712C881.709 193.712 877.925 194.169 870.521 205.674C865.341 213.718 859.67 227.662 849.329 250.343C844.442 261.063 838.332 275.572 849.676 276.348C855.812 276.768 862.25 273.408 866.044 266.35C872.992 253.42 882.466 239.651 882.466 239.651Z" fill="#04D361"/>
<path d="M892.168 297.514L951.175 283.589C951.165 283.589 932.609 297.514 892.168 297.514Z" fill="#03A14A"/>
<path d="M876.32 248.992C876.32 248.992 885.84 232.109 890.901 223.872L879.019 288.456C879.019 288.456 877.861 262.077 876.32 248.992Z" fill="#03A14A"/>
<path d="M914.263 270.989L878.974 287.488L880.788 270.523L914.263 270.989Z" fill="#03A14A"/>
<path d="M920.043 268.166L920.043 268.166L925.87 236.308L925.87 236.306C926.174 234.628 927.634 233.412 929.345 233.412H941.728C943.932 233.412 945.602 235.412 945.203 237.588L945.203 237.589L939.376 269.446C939.376 269.446 939.376 269.446 939.376 269.446C939.064 271.127 937.602 272.342 935.901 272.342H923.518C921.314 272.342 919.644 270.343 920.043 268.166Z" fill="#04D361" stroke="#04D361"/>
<path d="M937.433 274.193H925.05C922.533 274.193 920.627 271.911 921.083 269.427L926.91 237.569C927.257 235.651 928.925 234.263 930.877 234.263H943.26C945.776 234.263 947.682 236.546 947.226 239.03L941.399 270.888C941.053 272.805 939.384 274.193 937.433 274.193Z" fill="white"/>
<path d="M928.231 245.553L928.232 245.548L929.654 237.769L929.654 237.769L929.655 237.765C929.676 237.643 929.784 237.549 929.919 237.549H932.135C932.307 237.549 932.433 237.703 932.401 237.867L932.4 237.872L930.978 245.651L930.978 245.651L930.977 245.655C930.956 245.777 930.848 245.871 930.713 245.871H928.497C928.325 245.871 928.2 245.717 928.231 245.553Z" fill="#04D361" stroke="#04D361"/>
<path d="M902.627 256.963C902.627 256.963 908.664 256.762 913.287 255.347C915.275 254.735 919.214 254.023 920.518 252.133C921.831 250.225 921.713 246.106 923.026 245.933C924.038 245.796 926.062 249.019 925.542 251.192C925.032 253.32 924.786 254.498 924.011 255.448C923.755 255.767 932.263 256.37 937.652 255.183C941.345 254.37 940.251 258.032 937.743 259.182C937.743 259.182 938.637 261.419 936.02 262.177C936.02 262.177 936.047 265.163 933.549 265.3C933.266 265.994 932.783 267.473 930.621 268.003C927.476 268.779 922.725 269.071 917.938 268.642C915.503 268.423 904.269 270.395 904.269 270.395L902.627 256.963Z" fill="#FFCAD0"/>
<path d="M849.311 276.522C857.928 278.029 909.293 272.221 909.293 272.221L908.016 254.224C908.016 254.224 866.162 256.178 860.582 255.676C842.126 254.041 838.588 274.65 849.311 276.522Z" fill="#04D361"/>
<path d="M912.941 122.681C913.825 121.795 914.81 120.855 916.05 120.718C917.29 120.581 918.703 121.741 918.293 122.928C922.515 121.092 926.928 119.723 931.442 118.846C932.573 118.627 933.795 118.444 934.843 118.947C935.883 119.449 936.53 120.901 935.819 121.805C938.007 122.626 940.433 122.088 942.758 121.814C945.083 121.54 947.737 121.659 949.315 123.384C950.783 124.982 950.81 127.393 950.764 129.566C950.691 132.543 950.618 135.538 949.944 138.441C948.941 142.733 946.606 146.696 943.333 149.645C944.308 146.303 942.567 142.596 939.822 140.45C937.087 138.295 933.558 137.446 930.102 137.053C925.962 136.579 921.749 136.688 917.627 137.364C914.518 137.875 910.077 140.094 906.986 138.688C900.138 135.583 910.296 125.329 912.941 122.681Z" fill="#8F4A3F"/>
</g>
<path d="M1018.8 161.158H975.922C972.64 161.158 969.977 158.491 969.977 155.204V137.198C969.977 133.911 972.64 131.244 975.922 131.244H1018.8C1022.08 131.244 1024.74 133.911 1024.74 137.198V155.204C1024.74 158.491 1022.08 161.158 1018.8 161.158Z" fill="#04D361"/>
<path d="M979.15 159.222V167.422L987.922 158.638L979.15 159.222Z" fill="#04D361"/>
<path d="M982.57 149.625C984.458 149.625 985.989 148.092 985.989 146.201C985.989 144.31 984.458 142.777 982.57 142.777C980.681 142.777 979.15 144.31 979.15 146.201C979.15 148.092 980.681 149.625 982.57 149.625Z" fill="#E6E6F0"/>
<path d="M997.36 149.625C999.249 149.625 1000.78 148.092 1000.78 146.201C1000.78 144.31 999.249 142.777 997.36 142.777C995.472 142.777 993.941 144.31 993.941 146.201C993.941 148.092 995.472 149.625 997.36 149.625Z" fill="#E6E6F0"/>
<path d="M1012.15 149.625C1014.04 149.625 1015.57 148.092 1015.57 146.201C1015.57 144.31 1014.04 142.777 1012.15 142.777C1010.26 142.777 1008.73 144.31 1008.73 146.201C1008.73 148.092 1010.26 149.625 1012.15 149.625Z" fill="#E6E6F0"/>
<path d="M1136.74 404.882L1134.79 428.54H1144.87L1150.11 404.882H1136.74Z" fill="#FEC9CF"/>
<path d="M1145.97 423.591C1145.97 423.591 1150.34 430.668 1147.06 431.928C1143.78 433.188 1122.17 433.298 1116.83 432.503C1111.5 431.7 1128.73 424.386 1132.67 423.235C1136.62 422.085 1137.89 428.084 1145.97 423.591Z" fill="#6842C2"/>
<path d="M1189.72 404.882L1191.65 428.54H1181.57L1176.35 404.882H1189.72Z" fill="#FEC9CF"/>
<path d="M1180.48 423.591C1180.48 423.591 1176.1 430.668 1179.38 431.928C1182.67 433.188 1204.28 433.298 1209.61 432.503C1214.95 431.7 1197.71 424.386 1193.77 423.235C1189.83 422.085 1188.56 428.084 1180.48 423.591Z" fill="#6842C2"/>
<path d="M1134.71 275.522L1130.14 417.373H1151.42L1156 322.894L1174.23 420.085L1197.4 416.223C1197.4 416.223 1176.49 310.202 1172.93 275.531H1134.71V275.522Z" fill="#D8D8E3"/>
<path d="M1155.03 329.4L1154.3 314.1L1155.5 322.9L1155.03 329.4Z" fill="#194248" stroke="#C9C9D4"/>
<path d="M1166.09 275.522L1190.71 417.017" stroke="#C9C9D4" stroke-miterlimit="10" stroke-linecap="round" stroke-linejoin="round"/>
<path d="M1160.97 170.962C1165.51 170.971 1170.33 173.354 1171.86 177.637C1173.05 180.933 1172.15 184.823 1173.81 187.909C1175.04 190.192 1177.48 191.662 1178.58 194C1180.86 198.858 1176.42 204.628 1177.83 209.797C1179.14 214.581 1185.06 217.321 1185.55 222.26C1185.87 225.411 1183.65 228.433 1180.8 229.803C1177.95 231.182 1174.62 231.172 1171.5 230.652C1163.85 229.364 1156.64 225.164 1148.89 225.566C1145.7 225.73 1142.36 226.662 1139.41 225.429C1137.3 224.552 1135.78 222.699 1134.44 220.854C1132.9 218.736 1131.42 216.325 1131.57 213.714C1131.78 209.879 1135.25 207.194 1137.33 203.971C1139.45 200.675 1140.35 196.557 1139.76 192.676C1136.94 174.231 1147.3 174.797 1148.62 174.77C1149.83 174.742 1153.86 172.268 1155.46 171.802C1157.26 171.282 1159.11 170.962 1160.97 170.962Z" fill="#D38D00"/>
<path d="M1112.3 248.348C1107.91 244.85 1090.08 233.035 1089.9 231.382C1089.58 228.277 1088.49 225.821 1081.84 223.703C1081.84 223.703 1081.31 224.689 1082.24 225.776C1083.23 226.953 1084.03 227.364 1084.03 227.364C1084.03 227.364 1082.26 228.022 1079.66 225.94C1077.05 223.858 1075.96 222.059 1074.85 222.488C1074.85 222.488 1073.55 221.292 1072.93 221.475C1072.93 221.475 1072.48 221.603 1072.56 222.096C1071.53 221.922 1071.71 224.89 1073.51 227.328C1076.1 230.825 1080.67 233.491 1083.35 234.505C1085.35 235.263 1098.51 254.748 1107.33 256.858C1109.86 257.442 1114.34 249.973 1112.3 248.348Z" fill="#FCDDC6"/>
<path d="M1126.1 231.063C1126.1 231.063 1106.38 244.832 1104.48 248.257C1102.57 251.681 1103.99 260.821 1112.77 254.95C1121.56 249.078 1135.42 238.422 1135.42 238.422L1126.1 231.063Z" fill="#FCDDC6"/>
<path d="M1136.23 218.526C1136.23 218.526 1130.81 219.896 1127.2 224.196C1124.17 227.803 1119.29 233.61 1119.29 233.61L1134.25 245.243C1134.26 245.234 1137.9 224.087 1136.23 218.526Z" fill="#47248F"/>
<path d="M1172.93 275.522H1134.7C1134.7 275.522 1134.86 268.957 1132.73 258.757C1130.6 248.567 1131.67 243.235 1133.79 237.911C1135.93 232.588 1132.12 220.279 1136.23 218.526C1137.9 217.814 1140.8 216.663 1143.64 215.558C1144.36 215.284 1145.07 215.001 1145.76 214.736C1149.06 213.458 1151.84 212.399 1151.84 212.399H1158.72C1158.72 212.399 1163.46 213.969 1168.33 215.914C1168.97 216.17 1169.62 216.435 1170.26 216.7C1170.26 216.709 1170.26 216.709 1170.26 216.709C1172.71 217.741 1175.05 218.827 1176.65 219.822C1181.82 223.018 1172.93 275.522 1172.93 275.522Z" fill="#6842C2"/>
<path d="M1149.52 195.461L1150.25 209.632L1150.46 213.677C1150.55 215.394 1151.3 216.928 1152.47 218.033C1153.62 219.138 1155.19 219.804 1156.91 219.804C1160.54 219.804 1163.45 216.809 1163.36 213.184L1163.18 205.971L1162.87 193.982L1149.52 195.461Z" fill="#FFDFC8"/>
<path d="M1149.52 195.461L1150.25 208.811C1156.52 209.066 1161.09 206.51 1163.19 203.113L1162.88 193.982L1149.52 195.461Z" fill="#DA9F74"/>
<path d="M1144.54 184.485C1144.54 184.485 1144.08 189.106 1144.73 194.21C1145.47 200.118 1146.13 206.884 1153.91 207.523C1163.17 208.281 1166.26 197.616 1166.26 197.616C1166.26 197.616 1170.57 196.611 1171.1 193.671C1171.62 190.722 1168.42 189.836 1167.29 190.768C1167.29 190.768 1166.02 178.331 1154.55 178.331C1144.41 178.331 1144.54 184.485 1144.54 184.485Z" fill="#FFDFC8"/>
<path d="M1170.26 216.7C1170.26 216.709 1170.26 216.709 1170.26 216.7C1162.42 226.269 1153.17 225.822 1153.17 225.822C1145.87 224.224 1143.64 215.558 1143.64 215.558C1144.36 215.284 1145.07 215.001 1145.76 214.736C1149.06 213.458 1151.84 212.399 1151.84 212.399H1158.72C1158.72 212.399 1163.46 213.969 1168.33 215.914C1168.97 216.17 1169.62 216.435 1170.26 216.7Z" fill="#04D361"/>
<path d="M1168.33 215.914C1160.34 224.616 1153.41 223.703 1153.41 223.703C1145.96 220.845 1145.76 214.736 1145.76 214.736C1149.06 213.458 1151.84 212.399 1151.84 212.399H1158.72C1158.72 212.399 1163.46 213.969 1168.33 215.914Z" fill="#FCDDC6"/>
<path d="M1148.54 175.646C1148.54 175.646 1149.6 184.641 1143.83 187.608C1143.83 187.608 1140.94 176.715 1148.54 175.646Z" fill="#D38D00"/>
<path d="M1146.79 176.505C1146.79 176.505 1148.84 184.339 1153.93 184.796C1159.01 185.252 1158.11 189.379 1162.62 189.854C1165.3 190.137 1166.49 192.931 1166.49 192.931C1166.49 192.931 1166.88 190.156 1169.31 189.169C1171.75 188.183 1163.57 167.447 1146.79 176.505Z" fill="#D38D00"/>
<path d="M1155.42 195.36C1155.42 195.853 1155.81 196.246 1156.31 196.246C1156.8 196.246 1157.19 195.853 1157.19 195.36C1157.19 194.867 1156.8 194.475 1156.31 194.475C1155.82 194.475 1155.42 194.876 1155.42 195.36Z" fill="#60423D"/>
<path d="M1147.42 195.359C1147.42 195.852 1147.81 196.245 1148.3 196.245C1148.79 196.245 1149.18 195.852 1149.18 195.359C1149.18 194.866 1148.78 194.474 1148.3 194.474C1147.81 194.474 1147.42 194.876 1147.42 195.359Z" fill="#60423D"/>
<path d="M1159.53 192.274C1159.53 192.274 1158.22 190.11 1155.42 190.886" stroke="#561E15" stroke-miterlimit="10" stroke-linecap="round" stroke-linejoin="round"/>
<path d="M1150.61 190.859C1150.61 190.859 1148.58 189.015 1146.6 191.032" stroke="#561E15" stroke-miterlimit="10" stroke-linecap="round" stroke-linejoin="round"/>
<path d="M1152.38 193.059C1152.38 193.059 1151.42 195.506 1150.61 197.031C1149.79 198.556 1152.2 199.231 1152.2 199.231" stroke="#DA9F74" stroke-width="0.75" stroke-miterlimit="10" stroke-linecap="round" stroke-linejoin="round"/>
<path d="M1157.68 200.967C1157.68 200.967 1156.12 203.24 1153.41 202.592" stroke="#DA9F74" stroke-width="0.75" stroke-miterlimit="10" stroke-linecap="round" stroke-linejoin="round"/>
<path d="M1167.27 194.739C1167.27 194.739 1167.29 191.982 1169.35 192.74" stroke="#DA9F74" stroke-width="0.75" stroke-miterlimit="10" stroke-linecap="round" stroke-linejoin="round"/>
<path d="M1135.49 266.409H1100.47C1099.78 266.409 1099.21 265.843 1099.21 265.149C1099.21 264.455 1099.78 263.889 1100.47 263.889H1135.49C1136.18 263.889 1136.75 264.455 1136.75 265.149C1136.74 265.852 1136.18 266.409 1135.49 266.409Z" fill="#04D361"/>
<path d="M1096.54 236.622L1096.54 236.622L1096.53 236.62C1096.32 235.777 1096.97 234.95 1097.84 234.95H1129.38C1130 234.95 1130.53 235.37 1130.68 235.966L1130.68 235.968L1137.47 263.398H1103.17L1096.54 236.622Z" fill="#04D361" stroke="#04D361"/>
<path d="M1135.69 263.898H1100.35L1093.62 236.742C1093.33 235.583 1094.22 234.45 1095.41 234.45H1126.95C1127.8 234.45 1128.54 235.026 1128.74 235.847L1135.69 263.898Z" fill="white"/>
<path d="M1162.59 266.409H1136.09C1135.44 266.409 1134.91 265.88 1134.91 265.231V265.076C1134.91 264.428 1135.44 263.898 1136.09 263.898H1162.59C1163.24 263.898 1163.76 264.428 1163.76 265.076V265.231C1163.77 265.889 1163.24 266.409 1162.59 266.409Z" fill="#04D361"/>
<path d="M1115.48 247.632L1115.48 247.633C1116.07 249.168 1115.52 250.577 1114.57 250.95C1113.63 251.312 1112.27 250.638 1111.68 249.099C1111.09 247.561 1111.65 246.146 1112.59 245.783C1113.53 245.419 1114.89 246.086 1115.48 247.632Z" fill="#04D361" stroke="#04D361"/>
<path d="M1174.86 263.898L1172.56 234.076L1176.98 246.631L1174.86 263.898Z" fill="#47248F"/>
<path d="M1175.16 237.108C1175.16 237.108 1180.62 266.455 1181.97 271.258C1182.84 274.362 1189.21 276.481 1191.2 272.372C1191.64 271.468 1191.54 269.961 1191.49 268.427C1191.18 258.94 1184.55 234.797 1184.55 234.797L1175.16 237.108Z" fill="#FCDDC6"/>
<path d="M1176.66 219.823C1176.66 219.823 1179.91 221.493 1182.65 226.214C1185.38 230.935 1189.16 239.263 1188.92 241.281C1187.5 245.161 1176.27 249.179 1176.27 249.179C1176.27 249.179 1168.76 224.479 1176.66 219.823Z" fill="#6842C2"/>
<path d="M1182.96 265.587C1182.96 265.587 1165.64 265.204 1162.36 263.25C1157.91 260.593 1156.88 261.743 1154.3 261.104C1150.16 260.072 1150.62 260.912 1150.62 260.912C1150.62 260.912 1150.81 263.314 1154.01 263.615C1155.62 263.77 1158.04 264.455 1157.53 264.848C1157.53 264.848 1144.69 266.19 1142.11 266.418C1139.53 266.647 1140.79 268.637 1142.76 269.094C1142.76 269.094 1143.93 270.582 1145.84 270.126C1145.84 270.126 1145.42 270.966 1150.36 270.966C1155.3 270.966 1160.26 268.336 1162.77 269.477C1165.28 270.619 1178.82 275.869 1187.41 274.655C1191.51 274.07 1191.54 272.098 1191.54 270.016C1191.54 266.409 1188.88 265.953 1182.96 265.587Z" fill="#FCDDC6"/>
<path d="M823.705 404.882L817.988 428.541H807.912L810.338 404.882H823.705Z" fill="#BC8567"/>
<path d="M806.818 423.592C806.818 423.592 802.441 430.668 805.724 431.928C809.007 433.188 830.618 433.298 835.952 432.503C841.286 431.7 824.052 424.386 820.113 423.235C816.174 422.085 814.897 428.084 806.818 423.592Z" fill="#6842C2"/>
<path d="M791.973 404.882L788.517 428.541H778.441L778.605 404.882H791.973Z" fill="#BC8567"/>
<path d="M777.347 423.592C777.347 423.592 772.97 430.668 776.253 431.928C779.536 433.188 801.147 433.298 806.481 432.503C811.815 431.7 794.581 424.386 790.642 423.235C786.703 422.085 785.426 428.084 777.347 423.592Z" fill="#6842C2"/>
<path d="M775.04 290.461L775.788 416.707H791.782L803.08 323.953L815.955 361.592L806.317 416.716H823.715C823.715 416.716 839.007 369.079 838.387 359.729C837.767 350.37 820.113 286.616 820.113 286.616L775.04 290.461Z" fill="#D8D8E3"/>
<path d="M805.944 330.816L803.579 323.894L804.681 312.693L805.944 330.816Z" fill="#C9C9D4" stroke="#C9C9D4"/>
<path d="M784.068 288.936L783.146 416.716" stroke="#C9C9D4" stroke-miterlimit="10"/>
<path d="M833.043 232.643C833.043 232.643 843.375 252.211 843.603 258.219C843.83 264.227 837.22 262.885 833.8 257.47C830.381 252.046 824.909 236.67 824.909 236.67L833.043 232.643Z" fill="#BC8567"/>
<path d="M834.976 234.277C834.976 234.277 832.013 239.555 824.909 242.778C823.441 243.445 822.201 241.682 821.28 239.591C820.213 237.153 819.593 234.277 819.593 234.277C819.593 234.277 811.45 209.048 818.627 209.952C818.627 209.952 824.736 210.381 829.223 219.238C830.399 221.548 832.232 226.205 833.764 230.625C834.201 231.885 834.612 233.117 834.976 234.277Z" fill="#47248F"/>
<path d="M834.976 234.277C834.976 234.277 832.013 239.555 824.909 242.778C823.441 243.445 822.201 241.682 821.28 239.591C824.061 238.341 829.323 235.528 833.764 230.625C834.201 231.885 834.612 233.118 834.976 234.277Z" fill="#04D361"/>
<path d="M820.478 287.995C815.964 293.127 786.247 292.369 775.031 290.461C773.061 290.123 771.119 289.365 774.228 282.498C775.396 279.933 774.894 273.331 774.693 264.255C774.301 246.312 768.985 216.545 775.541 213.13C779.472 211.075 787.815 208.372 793.879 206.528C794.244 206.427 794.599 206.318 794.946 206.208C798.484 205.149 801.01 204.446 801.01 204.446C801.01 204.446 803.937 204.875 809.891 206.637C810.21 206.729 810.557 206.838 810.903 206.939C812.453 207.414 814.177 207.961 816.101 208.619C819.83 209.888 822.566 210.664 823.232 211.906C825.01 215.166 824.326 220.946 824.435 229.273C824.581 239.728 824.472 283.466 820.478 287.995Z" fill="#6842C2"/>
<path d="M773.298 243.938L779.709 228.287L775.04 268.546L773.298 243.938Z" fill="#47248F"/>
<path d="M810.903 206.948C810.767 209.158 809.773 211.102 808.277 212.527C806.745 213.988 804.675 214.874 802.423 214.874C797.763 214.874 793.988 211.139 793.897 206.519C794.262 206.418 794.618 206.309 794.964 206.199C798.502 205.14 801.028 204.437 801.028 204.437C801.028 204.437 803.955 204.866 809.909 206.628C810.219 206.747 810.557 206.847 810.903 206.948Z" fill="#04D361"/>
<path d="M814.789 172.5C814.789 172.5 811.413 169.269 806.304 168.5C798.831 167.376 788.991 169.81 787.031 181.235C785.481 187.818 793.496 198.639 796.523 198.009C796.523 198.009 823.774 180.735 814.789 172.5Z" fill="#43302D"/>
<path d="M809.882 188.33L809.153 202.501L808.943 206.546C808.861 208.263 808.104 209.797 806.937 210.902C805.779 212.006 804.21 212.673 802.496 212.673C798.867 212.673 795.949 209.678 796.04 206.053L796.223 198.839L796.533 186.85L809.882 188.33Z" fill="#BC8567"/>
<path d="M809.882 191.151L809.153 204.501C802.888 204.756 798.311 202.2 796.213 198.803L796.523 189.672L809.882 191.151Z" fill="#765441"/>
<path d="M814.852 180.176C814.852 180.176 815.317 184.796 814.669 189.9C813.922 195.808 814.186 202.748 805.487 203.213C796.204 203.706 793.131 193.306 793.131 193.306C793.131 193.306 788.198 192.384 787.861 189.051C787.523 185.718 790.97 185.526 792.092 186.458C792.092 186.458 793.368 174.021 804.84 174.021C814.989 174.03 814.852 180.176 814.852 180.176Z" fill="#BC8567"/>
<path d="M804.237 189.106C804.237 189.617 803.827 190.028 803.317 190.028C802.806 190.028 802.396 189.617 802.396 189.106C802.396 188.594 802.806 188.184 803.317 188.184C803.818 188.184 804.237 188.594 804.237 189.106Z" fill="#60423D"/>
<path d="M813.11 188.631C813.11 189.142 812.699 189.553 812.189 189.553C811.678 189.553 811.268 189.142 811.268 188.631C811.268 188.12 811.678 187.709 812.189 187.709C812.699 187.709 813.11 188.12 813.11 188.631Z" fill="#60423D"/>
<path d="M799.688 186.467C799.688 186.467 801.046 184.221 803.954 185.033" stroke="#43302D" stroke-miterlimit="10" stroke-linecap="round" stroke-linejoin="round"/>
<path d="M808.952 184.997C808.952 184.997 811.049 183.08 813.109 185.179" stroke="#43302D" stroke-miterlimit="10" stroke-linecap="round" stroke-linejoin="round"/>
<path d="M807.119 187.28C807.119 187.28 808.113 189.818 808.961 191.407C809.809 192.986 807.302 193.69 807.302 193.69" stroke="#765441" stroke-width="0.75" stroke-miterlimit="10" stroke-linecap="round" stroke-linejoin="round"/>
<path d="M803.782 196.529C803.782 196.529 805.833 198.52 808.468 197.305" stroke="#765441" stroke-width="0.75" stroke-miterlimit="10" stroke-linecap="round" stroke-linejoin="round"/>
<path d="M791.945 190.127C791.945 190.127 791.918 187.27 789.785 188.046" stroke="#765441" stroke-width="0.75" stroke-miterlimit="10" stroke-linecap="round" stroke-linejoin="round"/>
<path d="M794.764 176.834C794.764 176.834 799.979 182.157 797.125 184.193C793.952 186.458 793.45 189.672 793.45 189.672C793.45 189.672 793.514 188.54 792.101 186.467C790.688 184.394 787.605 177.035 794.764 176.834Z" fill="#43302D"/>
<path d="M766.204 233.693C766.204 233.693 755.873 253.261 755.645 259.269C755.417 265.277 762.028 263.935 765.447 258.52C768.867 253.096 774.338 237.72 774.338 237.72L766.204 233.693Z" fill="#BC8567"/>
<path d="M839.873 251.598C839.873 251.598 824.472 240.185 823.596 239.536C822.11 238.422 819.94 236.806 819.156 236.258C817.916 235.391 810.666 234.131 809.654 234.295C808.651 234.459 805.87 234.934 805.058 235.236C804.247 235.537 805.268 236.578 806.071 237.071C806.873 237.564 810.429 239.408 813.447 239.965C815.125 240.276 816.566 241.125 817.742 241.974C818.682 242.65 834.931 259.241 835.542 259.643L839.873 251.598Z" fill="#BC8567"/>
<path d="M820.806 237.592C820.806 237.592 815.007 232.159 814.141 232.241C813.283 232.323 813.894 233.547 816.174 235.4C816.949 236.03 817.779 237.026 818.472 237.354C819.83 237.993 820.806 237.592 820.806 237.592Z" fill="#BC8567"/>
<path d="M816.133 257.165L816.136 257.165C816.648 257.107 817.073 256.736 817.204 256.231L817.204 256.23L822.255 236.782C822.255 236.782 822.255 236.782 822.255 236.781C822.255 236.781 822.256 236.781 822.256 236.781C822.477 235.926 821.765 235.108 820.884 235.212C820.884 235.212 820.884 235.212 820.883 235.212L799.738 237.741L799.735 237.742L799.735 237.742C799.223 237.8 798.798 238.171 798.667 238.676L798.667 238.676L793.615 258.125C793.394 258.981 794.106 259.799 794.987 259.695L816.133 257.165ZM816.133 257.165L794.987 259.695L816.133 257.165Z" fill="#04D361" stroke="#04D361"/>
<path d="M817.132 258.31L795.986 260.839C794.755 260.986 793.761 259.844 794.071 258.648L799.123 239.199C799.305 238.496 799.898 237.975 800.619 237.893L821.765 235.364C822.996 235.218 823.989 236.359 823.679 237.555L818.628 257.004C818.445 257.698 817.853 258.219 817.132 258.31Z" fill="white"/>
<path d="M800.863 243.108L800.863 243.108L800.862 243.113C800.861 243.117 800.857 243.126 800.845 243.137C800.833 243.147 800.818 243.155 800.8 243.159L799.794 243.276L799.794 243.276C799.773 243.279 799.754 243.272 799.739 243.254C799.723 243.236 799.719 243.217 799.725 243.196L799.725 243.196L800.718 239.38L800.719 239.38L800.721 239.37C800.725 239.351 800.742 239.334 800.768 239.33L801.787 239.212L801.788 239.212C801.808 239.209 801.827 239.216 801.843 239.234C801.858 239.252 801.862 239.271 801.857 239.292L801.857 239.292L800.863 243.108ZM801.347 243.234L802.341 239.418L800.873 243.654C801.101 243.618 801.292 243.453 801.347 243.234Z" fill="#04D361" stroke="#04D361"/>
<path d="M759.593 253.48C766.049 253.736 786.228 253.316 788.9 252.402C790.049 252.01 792.876 251.416 793.596 250.293C794.326 249.152 794.946 247.417 795.703 247.289C796.286 247.189 796.15 249.07 795.976 249.754C795.648 250.987 795.429 251.626 794.991 252.192C794.846 252.384 799.815 253.096 802.934 252.302C805.077 251.754 804.675 253.471 803.235 254.192C803.235 254.192 803.809 255.69 802.295 256.183C802.295 256.183 802.56 257.845 801.101 257.972C800.946 258.383 800.49 259.123 799.232 259.479C797.408 259.99 794.244 259.981 791.836 260.082C790.414 260.136 762.921 264.437 758.061 263.214C756.037 262.702 757.496 253.398 759.593 253.48Z" fill="#BC8567"/>
<path d="M778.122 236.323C778.122 236.323 777.648 238.121 776.946 239.975C776.162 242.02 775.095 244.121 774.046 243.929C774.046 243.929 759.785 239.418 760.259 237.957C760.615 236.87 761.225 235.455 761.982 233.885C764.344 228.972 768.092 222.562 769.605 220.078C774.767 211.596 776.882 212.673 776.882 212.673C784.113 212.326 778.122 236.323 778.122 236.323Z" fill="#6842C2"/>
<path d="M776.946 239.975C776.162 242.02 775.095 244.12 774.046 243.929C774.046 243.929 759.785 239.418 760.259 237.957C760.615 236.87 761.225 235.455 761.982 233.885C764.608 235.126 771.694 238.386 776.946 239.975Z" fill="#04D361"/>
<path d="M781.469 279.96C781.469 279.96 805.177 276.152 817.943 268.546C817.943 268.546 803.663 282.855 781.469 279.96Z" fill="#47248F"/>
<path d="M1077.15 370.439H1015.5C1012.46 370.439 1010.01 367.974 1010.01 364.943V335.111C1010.01 332.071 1012.47 329.615 1015.5 329.615H1077.15C1080.18 329.615 1082.64 332.08 1082.64 335.111V364.933C1082.65 367.974 1080.18 370.439 1077.15 370.439Z" fill="#6842C2"/>
<path d="M1016.55 359.893C1022.29 359.893 1022.29 353.045 1028.03 353.045C1033.78 353.045 1033.78 343.914 1039.52 343.914C1045.27 343.914 1045.27 347.411 1051.01 347.411C1056.76 347.411 1056.76 338.965 1062.5 338.965C1068.25 338.965 1068.25 352.214 1073.99 352.214" stroke="white" stroke-width="2" stroke-miterlimit="10" stroke-linecap="round" stroke-linejoin="round"/>
<path d="M1018.22 359.893C1018.22 358.971 1017.48 358.222 1016.55 358.222C1015.63 358.222 1014.89 358.971 1014.89 359.893C1014.89 360.815 1015.63 361.563 1016.55 361.563C1017.48 361.563 1018.22 360.815 1018.22 359.893Z" fill="white"/>
<path d="M1075.67 352.223C1075.67 351.301 1074.92 350.552 1074 350.552C1073.08 350.552 1072.33 351.301 1072.33 352.223C1072.33 353.145 1073.08 353.893 1074 353.893C1074.92 353.893 1075.67 353.145 1075.67 352.223Z" fill="white"/>
<path d="M720.62 155.047H782.198C786.32 155.047 789.666 151.696 789.666 147.568V128.749C789.666 124.622 786.32 121.271 782.198 121.271H720.62C716.499 121.271 713.152 124.622 713.152 128.749V147.568C713.152 151.705 716.499 155.047 720.62 155.047Z" fill="#6842C2"/>
<path d="M780.493 153.111V161.311L771.712 152.527L780.493 153.111Z" fill="#6842C2"/>
<path d="M720.228 129.562H737.298" stroke="white" stroke-width="2.2165" stroke-miterlimit="10" stroke-linecap="round" stroke-linejoin="round"/>
<path d="M743.38 129.562H782.59" stroke="white" stroke-width="2.2165" stroke-miterlimit="10" stroke-linecap="round" stroke-linejoin="round"/>
<path d="M720.228 138.164H752.052" stroke="white" stroke-width="2.2165" stroke-miterlimit="10" stroke-linecap="round" stroke-linejoin="round"/>
<path d="M756.921 138.164H766.341" stroke="white" stroke-width="2.2165" stroke-miterlimit="10" stroke-linecap="round" stroke-linejoin="round"/>
<path d="M771.393 138.164H782.59" stroke="white" stroke-width="2.2165" stroke-miterlimit="10" stroke-linecap="round" stroke-linejoin="round"/>
<path d="M720.228 146.756H727.432" stroke="white" stroke-width="2.2165" stroke-miterlimit="10" stroke-linecap="round" stroke-linejoin="round"/>
<path d="M731.845 146.756H757.833" stroke="white" stroke-width="2.2165" stroke-miterlimit="10" stroke-linecap="round" stroke-linejoin="round"/>
<path d="M1103.89 124.551H1088.09C1085.15 124.551 1082.77 122.168 1082.77 119.228V103.404C1082.77 100.464 1085.15 98.0803 1088.09 98.0803H1103.89C1106.83 98.0803 1109.21 100.464 1109.21 103.404V119.228C1109.21 122.168 1106.83 124.551 1103.89 124.551Z" fill="#6842C2"/>
<path d="M1104.99 109.95L1104.59 108.215C1104.52 107.877 1104.17 107.667 1103.84 107.74L1102.82 107.978C1102.55 108.042 1102.29 107.914 1102.14 107.685C1101.74 107.055 1101.25 106.489 1100.68 106.014C1100.45 105.823 1100.38 105.512 1100.51 105.247L1101.02 104.197C1101.17 103.887 1101.04 103.503 1100.73 103.357L1099.12 102.581C1098.81 102.426 1098.43 102.563 1098.28 102.873L1097.74 104.015C1097.62 104.27 1097.34 104.398 1097.06 104.362C1096.72 104.316 1096.37 104.289 1096.02 104.289C1095.67 104.289 1095.32 104.316 1094.98 104.362C1094.7 104.398 1094.43 104.27 1094.31 104.015L1093.76 102.873C1093.61 102.563 1093.23 102.426 1092.92 102.581L1091.32 103.357C1091.01 103.512 1090.87 103.887 1091.03 104.197L1091.54 105.247C1091.66 105.512 1091.58 105.823 1091.36 106.014C1090.8 106.498 1090.3 107.055 1089.9 107.685C1089.76 107.914 1089.49 108.042 1089.23 107.978L1088.21 107.74C1087.87 107.667 1087.53 107.877 1087.45 108.215L1087.06 109.95C1086.99 110.288 1087.2 110.626 1087.53 110.708L1088.83 111C1088.82 111.183 1088.8 111.356 1088.8 111.539C1088.8 112.406 1088.96 113.246 1089.24 114.013C1089.33 114.269 1089.27 114.561 1089.05 114.735L1088.54 115.136C1088.27 115.355 1088.23 115.748 1088.44 116.022L1089.5 117.419C1089.72 117.693 1090.11 117.739 1090.39 117.52L1090.73 117.236C1090.97 117.054 1091.3 117.063 1091.53 117.246C1092.26 117.812 1093.09 118.25 1094 118.515C1094.27 118.597 1094.47 118.834 1094.47 119.127V119.492C1094.47 119.839 1094.75 120.122 1095.1 120.122H1096.88C1097.23 120.122 1097.51 119.839 1097.51 119.492V119.127C1097.51 118.834 1097.71 118.597 1097.98 118.515C1098.89 118.25 1099.72 117.821 1100.45 117.246C1100.69 117.063 1101.02 117.045 1101.25 117.236L1101.59 117.52C1101.87 117.739 1102.26 117.693 1102.48 117.419L1103.59 116.031C1103.81 115.757 1103.76 115.365 1103.49 115.145L1102.99 114.744C1102.77 114.57 1102.71 114.278 1102.8 114.022C1103.08 113.246 1103.23 112.415 1103.23 111.548C1103.23 111.365 1103.22 111.192 1103.21 111.009L1104.5 110.717C1104.85 110.626 1105.06 110.288 1104.99 109.95ZM1095.99 116.049C1093.51 116.049 1091.49 114.031 1091.49 111.539C1091.49 109.046 1093.51 107.028 1095.99 107.028C1098.48 107.028 1100.5 109.046 1100.5 111.539C1100.5 114.031 1098.48 116.049 1095.99 116.049Z" fill="white"/>
<path d="M1244.14 229.349C1245.76 219.369 1238.99 209.966 1229.03 208.348C1219.06 206.73 1209.67 213.508 1208.05 223.489C1206.43 233.469 1213.2 242.872 1223.16 244.49C1233.13 246.109 1242.52 239.33 1244.14 229.349Z" fill="#6842C2"/>
<path d="M1236.1 228.823C1237.41 223.292 1233.99 217.751 1228.46 216.446C1222.94 215.141 1217.4 218.567 1216.1 224.097C1214.79 229.628 1218.21 235.17 1223.74 236.475C1229.26 237.779 1234.8 234.354 1236.1 228.823Z" fill="#6842C2" stroke="white" stroke-width="2" stroke-miterlimit="10" stroke-linecap="round" stroke-linejoin="round"/>
<path d="M1226.08 219.695V226.424L1222.53 229.976" fill="#6842C2"/>
<path d="M1226.08 219.695V226.424L1222.53 229.976" stroke="white" stroke-width="2" stroke-miterlimit="10" stroke-linecap="round" stroke-linejoin="round"/>
<path d="M1226.08 216.134V217.12" stroke="white" stroke-width="2" stroke-miterlimit="10" stroke-linecap="round" stroke-linejoin="round"/>
<path d="M1226.08 235.738V236.715" stroke="white" stroke-width="2" stroke-miterlimit="10" stroke-linecap="round" stroke-linejoin="round"/>
<path d="M1236.36 226.424H1235.37" stroke="white" stroke-width="2" stroke-miterlimit="10" stroke-linecap="round" stroke-linejoin="round"/>
<path d="M1216.79 226.424H1215.8" stroke="white" stroke-width="2" stroke-miterlimit="10" stroke-linecap="round" stroke-linejoin="round"/>
<path d="M232.759 154.372H180.803C166.978 154.372 160 161.083 160 174.377V245.522C160 247.265 160.936 248.338 162.952 248.338H178.658C180.537 248.338 181.747 247.265 181.747 245.522V242.821C181.747 236.231 184.524 232.64 191.426 231.947H232.759C247.924 231.947 254.772 225.373 254.772 211.007V175.312C254.772 160.946 247.924 154.372 232.759 154.372ZM233.048 204.965C233.048 212.757 231.283 214.363 222.015 214.363H200.001C190.741 214.363 184.829 217.452 181.739 223.494V179.612C181.739 173.57 183.216 171.957 190.596 171.957H222.015C231.283 171.957 233.048 173.57 233.048 181.354V204.965Z" fill="white"/>
<path d="M304.574 193.704C292.628 193.704 287.522 199.745 287.522 209.949V245.788C287.522 247.402 286.715 248.338 284.836 248.338H270.607C268.727 248.338 267.792 247.402 267.792 245.788V180.281C267.792 178.668 268.727 177.725 270.607 177.725H282.553C284.303 177.725 285.239 178.668 285.239 180.281V190.85C287.522 182.13 294.104 177.694 305.784 177.694H310.616C312.358 177.694 313.294 178.638 313.294 180.251V191.155C313.294 192.897 312.358 193.704 310.616 193.704H304.574Z" fill="white"/>
<path d="M397.193 229.14C397.193 242.433 391.288 248.338 377.196 248.338H342.293C328.33 248.338 322.288 242.433 322.288 229.14V196.938C322.288 183.652 328.33 177.74 342.293 177.74H377.196C391.288 177.74 397.193 183.652 397.193 196.938V229.14ZM377.462 202.028C377.462 195.043 376.123 193.704 367.798 193.704H351.819C343.365 193.704 342.019 195.043 342.019 202.028V224.041C342.019 231.019 343.365 232.366 351.819 232.366H367.798C376.123 232.366 377.462 231.019 377.462 224.041V202.028Z" fill="white"/>
<path d="M417.06 193.704H410.341C408.591 193.704 407.655 192.897 407.655 191.155V180.281C407.655 178.668 408.591 177.725 410.341 177.725H417.053V169.004C417.06 155.711 424.038 149 437.864 149H454.376C456.255 149 457.062 149.944 457.062 151.549V162.423C457.062 164.173 456.255 164.972 454.376 164.972H445.655C438.267 164.972 436.791 166.585 436.791 172.626V177.725H454.376C456.255 177.725 457.062 178.668 457.062 180.281V191.155C457.062 192.897 456.255 193.704 454.376 193.704H436.791V245.789C436.791 247.402 435.855 248.338 433.975 248.338H419.746C417.867 248.338 417.06 247.402 417.06 245.789V193.704Z" fill="white"/>
<path d="M471.831 193.704H465.127C463.385 193.704 462.449 192.897 462.449 191.155V180.281C462.449 178.668 463.385 177.725 465.127 177.725H471.846V169.004C471.831 155.711 478.824 149 492.635 149H509.146C511.026 149 511.832 149.944 511.832 151.549V162.423C511.832 164.173 511.026 164.972 509.146 164.972H500.419C493.038 164.972 491.562 166.585 491.562 172.626V177.725H509.146C511.026 177.725 511.832 178.668 511.832 180.281V191.155C511.832 192.897 511.026 193.704 509.146 193.704H491.562V245.789C491.562 247.402 490.618 248.338 488.739 248.338H474.509C472.63 248.338 471.831 247.402 471.831 245.789V193.704Z" fill="white"/>
<path d="M571.831 275.723H542.566C529.417 275.723 523.779 270.625 523.779 258.001V256.662C523.74 256.302 523.782 255.937 523.904 255.596C524.025 255.254 524.221 254.944 524.479 254.689C524.736 254.434 525.047 254.24 525.39 254.122C525.733 254.004 526.097 253.964 526.457 254.006H540.154C542.033 254.006 542.969 254.95 542.969 256.693V257.362C542.969 260.048 544.453 261.121 547.405 261.121H564.32C572.371 261.121 574.387 259.112 574.387 252.264V231.088C571.298 237.129 565.393 240.219 556.125 240.219H542.429C528.466 240.219 522.287 234.314 522.287 221.021V180.281C522.269 179.93 522.327 179.578 522.458 179.251C522.588 178.924 522.788 178.628 523.043 178.385C523.298 178.143 523.603 177.958 523.936 177.844C524.269 177.73 524.623 177.689 524.973 177.725H539.34C541.082 177.725 542.026 178.668 542.026 180.281V215.961C542.026 222.938 543.502 224.285 551.826 224.285H562.03C570.887 224.285 574.38 220.656 574.38 213.275V180.281C574.38 178.668 575.316 177.725 577.066 177.725H591.44C591.783 177.691 592.13 177.735 592.455 177.852C592.78 177.969 593.075 178.156 593.318 178.401C593.562 178.645 593.749 178.94 593.865 179.266C593.98 179.591 594.023 179.938 593.989 180.281V254.379C593.981 268.464 586.463 275.723 571.831 275.723Z" fill="white"/>
<path d="M179.08 313.16C179.08 303.872 165.544 307.904 165.544 301.424C165.544 298.724 167.668 297.32 170.368 297.392C173.428 297.428 175.012 299.336 175.228 301.028H178.828C178.432 297.212 175.3 294.584 170.512 294.584C165.544 294.584 162.196 297.392 162.196 301.532C162.196 310.856 175.768 306.536 175.768 313.304C175.768 315.68 173.896 317.48 170.728 317.48C167.236 317.48 165.76 315.392 165.544 313.304H162.052C162.124 317.444 165.688 320.252 170.728 320.252C176.164 320.252 179.08 316.724 179.08 313.16ZM201.397 300.272H198.121V311.108C198.121 315.356 195.853 317.444 192.469 317.444C189.157 317.444 186.961 315.392 186.961 311.396V300.272H183.721V311.828C183.721 317.48 187.285 320.288 191.821 320.288C194.449 320.288 196.861 319.136 198.121 317.084V320H201.397V300.272ZM205.704 310.064C205.704 316.184 209.772 320.324 215.028 320.324C218.664 320.324 221.22 318.452 222.408 316.328V320H225.72V300.272H222.408V303.872C221.256 301.82 218.736 299.948 215.064 299.948C209.772 299.948 205.704 303.908 205.704 310.064ZM222.408 310.1C222.408 314.744 219.312 317.444 215.712 317.444C212.112 317.444 209.052 314.708 209.052 310.064C209.052 305.42 212.112 302.792 215.712 302.792C219.312 302.792 222.408 305.528 222.408 310.1ZM244.13 303.908V300.272H240.854V329.36H244.13V316.364C245.354 318.38 247.91 320.324 251.51 320.324C256.802 320.324 260.87 316.184 260.87 310.064C260.87 303.908 256.802 299.948 251.51 299.948C247.91 299.948 245.318 301.82 244.13 303.908ZM257.522 310.064C257.522 314.708 254.462 317.444 250.826 317.444C247.262 317.444 244.13 314.744 244.13 310.1C244.13 305.528 247.262 302.792 250.826 302.792C254.462 302.792 257.522 305.42 257.522 310.064ZM265.182 320H268.458V293.36H265.182V320ZM272.818 310.064C272.818 316.184 276.886 320.324 282.142 320.324C285.778 320.324 288.334 318.452 289.522 316.328V320H292.834V300.272H289.522V303.872C288.37 301.82 285.85 299.948 282.178 299.948C276.886 299.948 272.818 303.908 272.818 310.064ZM289.522 310.1C289.522 314.744 286.426 317.444 282.826 317.444C279.226 317.444 276.166 314.708 276.166 310.064C276.166 305.42 279.226 302.792 282.826 302.792C286.426 302.792 289.522 305.528 289.522 310.1ZM298.982 320H302.258V302.972H306.398V300.272H302.258V298.868C302.258 296.312 303.23 295.232 306.182 295.232V292.496C301.142 292.496 298.982 294.476 298.982 298.868V300.272H296.426V302.972H298.982V320ZM328.937 310.1C328.937 303.872 324.581 299.948 318.965 299.948C313.385 299.948 308.993 303.872 308.993 310.1C308.993 316.364 313.241 320.324 318.821 320.324C324.437 320.324 328.937 316.364 328.937 310.1ZM312.341 310.1C312.341 305.132 315.473 302.792 318.929 302.792C322.313 302.792 325.589 305.132 325.589 310.1C325.589 315.104 322.241 317.444 318.821 317.444C315.401 317.444 312.341 315.104 312.341 310.1ZM336.521 309.272C336.521 304.7 338.897 303.296 342.029 303.296H342.893V299.912C339.761 299.912 337.637 301.28 336.521 303.476V300.272H333.245V320H336.521V309.272ZM375.15 320H378.39V308.372C378.39 302.72 374.898 299.912 370.398 299.912C367.374 299.912 364.566 301.46 363.414 304.304C362.118 301.352 359.418 299.912 356.178 299.912C353.586 299.912 351.246 301.028 349.95 303.116V300.272H346.674V320H349.95V309.128C349.95 304.88 352.218 302.756 355.53 302.756C358.77 302.756 360.93 304.808 360.93 308.84V320H364.17V309.128C364.17 304.88 366.438 302.756 369.75 302.756C372.99 302.756 375.15 304.808 375.15 308.84V320ZM382.54 310.064C382.54 316.184 386.608 320.324 391.864 320.324C395.5 320.324 398.056 318.452 399.244 316.328V320H402.556V300.272H399.244V303.872C398.092 301.82 395.572 299.948 391.9 299.948C386.608 299.948 382.54 303.908 382.54 310.064ZM399.244 310.1C399.244 314.744 396.148 317.444 392.548 317.444C388.948 317.444 385.888 314.708 385.888 310.064C385.888 305.42 388.948 302.792 392.548 302.792C396.148 302.792 399.244 305.528 399.244 310.1ZM416.466 310.064C416.466 316.184 420.534 320.324 425.826 320.324C429.426 320.324 431.982 318.488 433.17 316.292V320H436.482V293.36H433.17V303.8C431.802 301.532 428.958 299.948 425.862 299.948C420.534 299.948 416.466 303.908 416.466 310.064ZM433.17 310.1C433.17 314.744 430.074 317.444 426.474 317.444C422.874 317.444 419.814 314.708 419.814 310.064C419.814 305.42 422.874 302.792 426.474 302.792C430.074 302.792 433.17 305.528 433.17 310.1ZM450.406 302.72C453.79 302.72 456.67 304.844 456.634 308.696H444.178C444.538 304.844 447.202 302.72 450.406 302.72ZM459.622 313.916H456.094C455.374 316.04 453.502 317.552 450.55 317.552C447.202 317.552 444.394 315.356 444.142 311.36H459.91C459.982 310.676 460.018 310.1 460.018 309.38C460.018 303.98 456.274 299.948 450.55 299.948C444.79 299.948 440.794 303.872 440.794 310.1C440.794 316.364 444.934 320.324 450.55 320.324C455.446 320.324 458.614 317.516 459.622 313.916ZM171.16 348.72C174.544 348.72 177.424 350.844 177.388 354.696H164.932C165.292 350.844 167.956 348.72 171.16 348.72ZM180.376 359.916H176.848C176.128 362.04 174.256 363.552 171.304 363.552C167.956 363.552 165.148 361.356 164.896 357.36H180.664C180.736 356.676 180.772 356.1 180.772 355.38C180.772 349.98 177.028 345.948 171.304 345.948C165.544 345.948 161.548 349.872 161.548 356.1C161.548 362.364 165.688 366.324 171.304 366.324C176.2 366.324 179.368 363.516 180.376 359.916ZM199.28 360.636C199.136 353.58 187.688 356.136 187.688 351.456C187.688 349.872 189.128 348.72 191.54 348.72C194.168 348.72 195.68 350.16 195.824 352.14H199.1C198.884 348.288 196.004 345.948 191.648 345.948C187.256 345.948 184.412 348.432 184.412 351.456C184.412 358.8 196.076 356.244 196.076 360.636C196.076 362.256 194.636 363.552 192.044 363.552C189.272 363.552 187.58 362.112 187.4 360.204H184.016C184.232 363.804 187.472 366.324 192.08 366.324C196.436 366.324 199.28 363.876 199.28 360.636ZM204.625 360.6C204.625 364.56 206.605 366 210.097 366H213.049V363.228H210.637C208.621 363.228 207.901 362.544 207.901 360.6V348.972H213.049V346.272H207.901V341.304H204.625V346.272H202.069V348.972H204.625V360.6ZM234.514 346.272H231.238V357.108C231.238 361.356 228.97 363.444 225.586 363.444C222.274 363.444 220.078 361.392 220.078 357.396V346.272H216.838V357.828C216.838 363.48 220.402 366.288 224.938 366.288C227.566 366.288 229.978 365.136 231.238 363.084V366H234.514V346.272ZM238.821 356.064C238.821 362.184 242.889 366.324 248.181 366.324C251.781 366.324 254.337 364.488 255.525 362.292V366H258.837V339.36H255.525V349.8C254.157 347.532 251.313 345.948 248.217 345.948C242.889 345.948 238.821 349.908 238.821 356.064ZM255.525 356.1C255.525 360.744 252.429 363.444 248.829 363.444C245.229 363.444 242.169 360.708 242.169 356.064C242.169 351.42 245.229 348.792 248.829 348.792C252.429 348.792 255.525 351.528 255.525 356.1ZM283.094 356.1C283.094 349.872 278.738 345.948 273.122 345.948C267.542 345.948 263.15 349.872 263.15 356.1C263.15 362.364 267.398 366.324 272.978 366.324C278.594 366.324 283.094 362.364 283.094 356.1ZM266.498 356.1C266.498 351.132 269.63 348.792 273.086 348.792C276.47 348.792 279.746 351.132 279.746 356.1C279.746 361.104 276.398 363.444 272.978 363.444C269.558 363.444 266.498 361.104 266.498 356.1ZM301.585 360.636C301.441 353.58 289.993 356.136 289.993 351.456C289.993 349.872 291.433 348.72 293.845 348.72C296.473 348.72 297.985 350.16 298.129 352.14H301.405C301.189 348.288 298.309 345.948 293.953 345.948C289.561 345.948 286.717 348.432 286.717 351.456C286.717 358.8 298.381 356.244 298.381 360.636C298.381 362.256 296.941 363.552 294.349 363.552C291.577 363.552 289.885 362.112 289.705 360.204H286.321C286.537 363.804 289.777 366.324 294.385 366.324C298.741 366.324 301.585 363.876 301.585 360.636ZM334.527 356.1C334.527 349.872 330.171 345.948 324.555 345.948C318.975 345.948 314.583 349.872 314.583 356.1C314.583 362.364 318.831 366.324 324.411 366.324C330.027 366.324 334.527 362.364 334.527 356.1ZM317.931 356.1C317.931 351.132 321.063 348.792 324.519 348.792C327.903 348.792 331.179 351.132 331.179 356.1C331.179 361.104 327.831 363.444 324.411 363.444C320.991 363.444 317.931 361.104 317.931 356.1ZM353.271 366H356.511V354.372C356.511 348.72 353.019 345.912 348.447 345.912C345.783 345.912 343.407 347.028 342.111 349.08V346.272H338.835V366H342.111V355.092C342.111 350.844 344.415 348.756 347.763 348.756C351.075 348.756 353.271 350.808 353.271 354.84V366ZM361.862 366H365.138V339.36H361.862V366ZM370.721 366H373.997V346.272H370.721V366ZM372.413 343.068C373.601 343.068 374.573 342.096 374.573 340.836C374.573 339.576 373.601 338.604 372.413 338.604C371.153 338.604 370.181 339.576 370.181 340.836C370.181 342.096 371.153 343.068 372.413 343.068ZM394.017 366H397.257V354.372C397.257 348.72 393.765 345.912 389.193 345.912C386.529 345.912 384.153 347.028 382.857 349.08V346.272H379.581V366H382.857V355.092C382.857 350.844 385.161 348.756 388.509 348.756C391.821 348.756 394.017 350.808 394.017 354.84V366ZM410.996 348.72C414.38 348.72 417.26 350.844 417.224 354.696H404.768C405.128 350.844 407.792 348.72 410.996 348.72ZM420.212 359.916H416.684C415.964 362.04 414.092 363.552 411.14 363.552C407.792 363.552 404.984 361.356 404.732 357.36H420.5C420.572 356.676 420.608 356.1 420.608 355.38C420.608 349.98 416.864 345.948 411.14 345.948C405.38 345.948 401.384 349.872 401.384 356.1C401.384 362.364 405.524 366.324 411.14 366.324C416.036 366.324 419.204 363.516 420.212 359.916ZM428.136 363.984C428.136 362.724 427.164 361.752 425.976 361.752C424.716 361.752 423.744 362.724 423.744 363.984C423.744 365.244 424.716 366.216 425.976 366.216C427.164 366.216 428.136 365.244 428.136 363.984Z" fill="#D4C2FF"/>
</svg>
